<svg width="1440" height="571" viewBox="0 0 1440 571" fill="none" xmlns="http://www.w3.org/2000/svg">
<rect x="-0.000488281" y="5" width="1440" height="527" fill="#008CDB"/>
<path d="M-4.55921 48.0222C-4.55921 48.0222 132.978 711.137 229.473 526.707C283.545 423.362 166.533 327.717 232.211 230.72C289.167 146.604 361.27 102.584 466.083 104.878C602.786 107.869 630.361 236.409 722.302 333.257C792.385 407.08 791.465 497.197 888.843 532.806C1080.58 602.921 863.936 -0.0994168 1060.05 57.8692C1162.88 88.2632 1244.46 153.204 1241.77 256.058C1239.91 327.175 1144.27 343.66 1148.27 414.7C1154.89 532.504 1436.84 537.875 1436.84 537.875" stroke="white" stroke-opacity="0.19" stroke-width="9"/>
<path d="M47.0152 236.145C47.0152 236.145 193.476 -65.523 287.473 20.1955C340.144 68.2282 221.857 110.429 286.219 155.712C342.034 194.982 413.535 216.103 518.365 216.466C655.091 216.94 684.396 158.476 777.632 115.387C848.702 82.5412 848.996 41.2805 946.843 26.2943C1139.5 -3.21383 914.753 269.881 1111.63 245.992C1214.85 233.466 1297.3 204.841 1296 157.726C1295.09 125.15 1199.69 116.315 1204.64 83.8516C1212.85 30.0199 1494.84 31.3629 1494.84 31.3629" stroke="white" stroke-opacity="0.19" stroke-width="9"/>
</svg>
