<svg width="1440" height="449" viewBox="0 0 1440 449" fill="none" xmlns="http://www.w3.org/2000/svg">
<rect x="-0.000488281" y="2" width="1440" height="528" fill="#7A5918"/>
<path d="M4.50817 39.2962C4.50817 39.2962 136.171 559.168 228.546 414.578C280.308 333.557 168.293 258.572 231.166 182.528C285.69 116.583 354.714 82.072 455.05 83.8699C585.914 86.2149 612.312 186.989 700.327 262.916C767.417 320.792 766.536 391.442 859.755 419.359C1043.31 474.329 835.911 1.56953 1023.65 47.0161C1122.09 70.8445 1200.19 121.757 1197.61 202.393C1195.83 258.148 1104.28 271.071 1108.1 326.766C1114.44 419.122 1384.34 423.333 1384.34 423.333" stroke="white" stroke-opacity="0.19" stroke-width="9"/>
<path d="M53.8798 186.781C53.8798 186.781 194.085 -49.7216 284.068 17.4805C334.49 55.1374 221.255 88.2223 282.868 123.724C336.299 154.51 404.746 171.069 505.099 171.354C635.986 171.725 664.039 125.891 753.293 92.1089C821.327 66.3586 821.61 34.0108 915.277 22.2618C1099.71 -0.87208 884.558 213.23 1073.02 194.501C1171.84 184.681 1250.77 162.24 1249.52 125.302C1248.66 99.7628 1157.33 92.8365 1162.07 67.3859C1169.93 25.1826 1439.87 26.2355 1439.87 26.2355" stroke="white" stroke-opacity="0.19" stroke-width="9"/>
</svg>
