<svg width="162" height="122" viewBox="0 0 162 122" fill="none" xmlns="http://www.w3.org/2000/svg">
<path d="M65.6707 36.9984C65.6707 36.9984 72.1383 35.8463 73.3308 42.1402C74.5233 48.434 70.9054 63.1963 83.8973 63.0912C96.8891 62.9861 93.7038 62.5738 93.7038 62.5738L94.2253 66.2887C94.2253 66.2887 71.2046 74.8745 66.9076 61.0337C62.6107 47.193 65.6707 36.9984 65.6707 36.9984Z" fill="#ED1C24"/>
<path opacity="0.46" d="M65.6707 36.9984C65.6707 36.9984 72.1383 35.8463 73.3308 42.1402C74.5233 48.434 70.9054 63.1963 83.8973 63.0912C96.8891 62.9861 93.7038 62.5738 93.7038 62.5738L94.2253 66.2887C94.2253 66.2887 71.2046 74.8745 66.9076 61.0337C62.6107 47.193 65.6707 36.9984 65.6707 36.9984Z" fill="white"/>
<path d="M69.5269 82.3931L58.4591 102.839L56.9312 102.483L63.5726 80.9985L69.5269 82.3931Z" fill="#F4A28C"/>
<path d="M58.6128 102.524C58.6128 102.524 58.8796 103.91 59.8983 104.375C60.9169 104.84 60.3308 106.319 58.8109 105.349C58.3368 105.05 57.8892 104.71 57.4729 104.335C57.082 104 56.609 103.775 56.1026 103.684C56.009 103.66 55.9246 103.608 55.8599 103.536C55.7952 103.465 55.7531 103.375 55.7388 103.28C55.5609 102.516 57.3112 101.865 57.3112 101.865L58.6128 102.524Z" fill="#ED1C24"/>
<path d="M71.5481 80.4366L73.3307 103.623L71.8553 104.149L65.7878 82.4942L71.5481 80.4366Z" fill="#F4A28C"/>
<path d="M73.2743 103.284C73.2743 103.284 74.2485 104.302 75.3561 104.145C76.4637 103.987 76.775 105.539 74.9721 105.547C74.4103 105.554 73.8491 105.512 73.2946 105.422C72.7846 105.354 72.2658 105.422 71.7908 105.62C71.697 105.65 71.5962 105.651 71.5017 105.623C71.4072 105.595 71.3234 105.539 71.2613 105.462C70.6954 104.917 71.8151 103.421 71.8151 103.421L73.2743 103.284Z" fill="#ED1C24"/>
<path opacity="0.3" d="M56.2723 23.5337C39.7394 27.6204 26.6788 40.5233 22.8387 57.1169C20.0091 69.466 22.491 82.1991 41.6716 86.8275C83.1412 96.8402 127.934 93.5377 133.302 73.5163C138.67 53.495 128.71 19.1438 105.006 17.0175C91.4966 15.8089 71.2246 19.839 56.2723 23.5337Z" fill="#E6E6E6"/>
<path opacity="0.45" d="M80.3077 111.307C111.087 111.307 136.038 108.911 136.038 105.955C136.038 103 111.087 100.604 80.3077 100.604C49.5284 100.604 24.5769 103 24.5769 105.955C24.5769 108.911 49.5284 111.307 80.3077 111.307Z" fill="#E6E6E6"/>
<path opacity="0.58" d="M42.7388 100.414C42.7388 100.414 39.4161 99.5203 38.6965 96.432C38.6965 96.432 43.8383 95.3689 44.0081 100.68L42.7388 100.414Z" fill="#ED1C24"/>
<path opacity="0.73" d="M43.147 100.082C43.147 100.082 40.8106 96.4198 42.8398 92.9839C42.8398 92.9839 46.7608 95.4497 45.0428 100.082H43.147Z" fill="#ED1C24"/>
<path d="M43.7451 100.082C43.7451 100.082 44.9578 96.2016 48.6605 95.4497C48.6605 95.4497 49.3639 97.964 46.2756 100.082H43.7451Z" fill="#ED1C24"/>
<path d="M41.3362 100.005L42.0274 104.61H46.2678L46.8741 100.005H41.3362Z" fill="#24285B"/>
<path opacity="0.58" d="M42.7388 100.414C42.7388 100.414 39.4161 99.5203 38.6965 96.432C38.6965 96.432 43.8383 95.3689 44.0081 100.68L42.7388 100.414Z" fill="#ED1C24"/>
<path opacity="0.73" d="M43.147 100.082C43.147 100.082 40.8106 96.4198 42.8398 92.9839C42.8398 92.9839 46.7608 95.4497 45.0428 100.082H43.147Z" fill="#ED1C24"/>
<path d="M43.7451 100.082C43.7451 100.082 44.9578 96.2016 48.6605 95.4497C48.6605 95.4497 49.3639 97.964 46.2756 100.082H43.7451Z" fill="#ED1C24"/>
<path d="M41.3362 100.005L42.0274 104.61H46.2678L46.8741 100.005H41.3362Z" fill="#24285B"/>
<path d="M97.4024 6.90381L80.1338 41.4046H89.2087V95.4497H105.709V41.4046H114.671L97.4024 6.90381Z" fill="#FFD200"/>
<path d="M63.0148 25.8297C63.0148 25.8297 60.6137 23.8086 58.726 25.2153C56.8382 26.622 58.1196 32.366 54.0127 31.0483C54.0127 31.0483 58.4592 34.751 61.6 28.7037L63.0148 25.8297Z" fill="#24285B"/>
<path d="M61.0988 29.7628C61.0988 29.7628 59.4819 29.5284 60.1408 27.3051C60.7997 25.0819 62.6551 25.1668 63.1886 25.765L61.0988 29.7628Z" fill="#ED1C24"/>
<path d="M72.3078 66.2888L76.2612 99.3182H65.9857L65.1328 69.5954L72.3078 66.2888Z" fill="#24285B"/>
<path opacity="0.08" d="M72.3078 66.2888L76.2612 99.3182H65.9857L65.1328 69.5954L72.3078 66.2888Z" fill="black"/>
<path d="M65.9739 28.5542C65.86 29.6305 65.6031 30.6867 65.2099 31.6951C65.1549 31.8115 65.0774 31.9159 64.982 32.0023C64.8865 32.0887 64.7749 32.1554 64.6536 32.1986C64.5323 32.2418 64.4037 32.2606 64.2751 32.254C64.1465 32.2473 64.0205 32.2154 63.9043 32.1599C63.5189 32.0052 63.1864 31.7425 62.9469 31.4033C62.7074 31.064 62.571 30.6628 62.5541 30.2479L62.3035 28.4693C62.2911 28.1083 62.391 27.7523 62.5893 27.4504C62.7877 27.1486 63.0748 26.9156 63.4111 26.7837C64.6359 26.2178 66.1558 27.382 65.9739 28.5542Z" fill="#F4A28C"/>
<path d="M61.9075 29.4596L60.6382 35.7049L64.1307 36.1576L63.6618 31.5494L61.9075 29.4596Z" fill="#F4A28C"/>
<path d="M65.7839 29.7668L66.1882 30.6076C66.2098 30.655 66.2192 30.7071 66.2155 30.7591C66.2118 30.8111 66.1951 30.8613 66.167 30.9052C66.1388 30.949 66.1001 30.9851 66.0543 31.0101C66.0086 31.0351 65.9573 31.0482 65.9052 31.0482H65.1453L65.7839 29.7668Z" fill="#F4A28C"/>
<path opacity="0.31" d="M63.6736 31.6829C63.2616 31.5518 62.8928 31.3116 62.6064 30.9877C62.6064 30.9877 62.2022 32.3257 63.8191 33.0088L63.6736 31.6829Z" fill="#CE8172"/>
<path d="M62.0365 29.492C62.0365 29.492 62.1619 28.7523 61.6 28.6835C61.0381 28.6148 60.8441 29.6982 61.5757 29.9447L62.0365 29.492Z" fill="#F4A28C"/>
<path d="M65.5897 28.3885C64.9636 28.4216 64.3364 28.3492 63.7343 28.1742C63.7343 28.1742 63.0956 30.2762 61.3332 30.6198C61.3332 30.6198 60.0841 27.2324 62.2063 26.2178C63.9809 25.3648 65.3188 24.6009 66.5437 25.9752C66.7217 26.1765 66.8406 26.4231 66.8871 26.6877C66.9336 26.9523 66.906 27.2247 66.8072 27.4746C66.7084 27.7245 66.5424 27.9421 66.3275 28.1034C66.1126 28.2647 65.8572 28.3634 65.5897 28.3885Z" fill="#24285B"/>
<path d="M59.7205 36.1213C59.7205 36.1213 49.1904 37.2532 48.778 43.3085C48.3657 49.3638 55.7833 66.2888 55.7833 66.2888H72.296L73.8401 57.028C74.2146 54.8978 74.9501 52.8472 76.0149 50.9646C77.2801 48.6847 78.3796 44.9011 74.879 41.2631C73.7145 40.0784 72.3004 39.1683 70.7397 38.5992L64.5631 36.2952L59.7205 36.1213Z" fill="#ED1C24"/>
<path d="M63.6414 29.3061C63.6414 29.3061 63.6414 28.437 62.9502 28.4977C62.259 28.5583 62.1417 29.5608 62.9502 30.0539L63.6414 29.3061Z" fill="#F4A28C"/>
<path d="M59.2716 35.9798C59.2716 35.9798 58.7865 34.4761 61.5757 34.1608C64.3648 33.8455 66.584 35.0299 65.6705 36.9904C65.6705 36.9985 63.5685 38.672 59.2716 35.9798Z" fill="#ED1C24"/>
<path opacity="0.46" d="M59.2716 35.9798C59.2716 35.9798 58.7865 34.4761 61.5757 34.1608C64.3648 33.8455 66.584 35.0299 65.6705 36.9904C65.6705 36.9985 63.5685 38.672 59.2716 35.9798Z" fill="white"/>
<path d="M55.7832 66.2888L58.2086 74.2278C59.7823 79.3958 59.6833 84.9288 57.9256 90.0372L55.7832 96.2178L65.9859 99.3344L68.4557 89.1842C69.4693 85.0184 69.3606 80.6582 68.1404 76.5481L68.096 76.4026C67.5533 74.5747 67.631 72.6186 68.3169 70.8395C69.0028 69.0603 70.2584 67.5583 71.8876 66.5677L72.2918 66.309L55.7832 66.2888Z" fill="#24285B"/>
<path opacity="0.08" d="M58.5117 41.4895C58.5117 41.4895 61.0947 45.6126 58.5117 51.191C55.9287 56.7693 57.7033 58.9683 65.6301 58.8713L69.0014 52.2541L74.9395 53.2202C74.9395 53.2202 74.0381 55.3141 73.9896 56.3125L72.308 66.2848H55.7832L55.48 65.1772L51.9956 58.8025L50.3787 50.7544L58.5117 41.4895Z" fill="black"/>
<path d="M73.1421 50.852L62.8911 49.5607L61.145 63.4212L71.3961 64.7126L73.1421 50.852Z" fill="#FFD200"/>
<path opacity="0.08" d="M70.6992 59.3805C70.6992 59.3805 71.9968 61.6805 69.4865 62.1616C66.9763 62.6426 66.9116 64.1423 66.9116 64.1423L61.6082 63.4349L70.6992 59.3805Z" fill="black"/>
<path d="M70.1601 49.5849L66.0132 49.0625L65.7414 51.2202L69.8883 51.7426L70.1601 49.5849Z" fill="#24285B"/>
<path d="M58.5321 43.9835C59.6356 39.9413 55.0921 36.6751 51.6077 38.9954C47.4805 41.736 41.6354 47.4477 44.0608 56.9147C47.6746 71.0627 58.7746 66.3939 66.9117 61.0419L65.6344 58.8752C65.6344 58.8752 53.7016 62.5133 52.3757 56.1588C52.2205 55.338 52.2643 54.492 52.5035 53.6916C52.7426 52.8913 53.1701 52.1599 53.7501 51.5587C55.2538 49.9459 57.7115 46.9788 58.5321 43.9835Z" fill="#ED1C24"/>
<path opacity="0.46" d="M58.5321 43.9835C59.6356 39.9413 55.0921 36.6751 51.6077 38.9954C47.4805 41.736 41.6354 47.4477 44.0608 56.9147C47.6746 71.0627 58.7746 66.3939 66.9117 61.0419L65.6344 58.8752C65.6344 58.8752 53.7016 62.5133 52.3757 56.1588C52.2205 55.338 52.2643 54.492 52.5035 53.6916C52.7426 52.8913 53.1701 52.1599 53.7501 51.5587C55.2538 49.9459 57.7115 46.9788 58.5321 43.9835Z" fill="white"/>
<path d="M65.6301 58.8754C65.6301 58.8754 69.1388 56.83 70.4809 58.8754C71.8229 60.9208 66.9075 61.042 66.9075 61.042L65.6301 58.8754Z" fill="#F4A28C"/>
</svg>
