<svg width="162" height="122" viewBox="0 0 162 122" fill="none" xmlns="http://www.w3.org/2000/svg">
<path opacity="0.3" d="M54.5708 21.4235C42.4965 25.203 22.0628 31.4241 18.7239 47.5527C16.2258 59.627 17.3819 91.1608 40.1479 98.8653C70.7722 109.238 123.588 104.185 135.012 80.9217C142.349 65.9895 144.309 35.8706 121.846 26.8604C106.627 20.7565 80.5019 13.3309 54.5708 21.4235Z" fill="#E6E6E6"/>
<path d="M78.6789 38.5912H76.5042V56.5146H78.6789V38.5912Z" fill="#E6E6E6"/>
<path d="M115.805 35.5053L108.695 49.8021L110.642 50.7705L117.752 36.4736L115.805 35.5053Z" fill="#E6E6E6"/>
<path d="M85.2229 71.3821L83.8425 73.0626L101.875 87.8747L103.255 86.1942L85.2229 71.3821Z" fill="#E6E6E6"/>
<path d="M104.234 87.5309C104.33 87.3857 104.384 87.2174 104.392 87.0438C104.4 86.8702 104.361 86.6978 104.279 86.5446L102.334 87.5147C101.833 86.5122 102.739 85.821 104.889 84.1475C106.146 83.1773 107.917 81.8676 110.144 80.2588C113.94 77.5222 117.824 74.8301 117.861 74.8018L119.102 76.5884C113.378 80.566 104.978 86.589 104.234 87.5309Z" fill="#E6E6E6"/>
<path d="M86.5047 64.199L85.7407 62.1617L108.709 53.5112L135.392 52.1692L135.505 54.3439L109.158 55.6698L86.5047 64.199Z" fill="#E6E6E6"/>
<path d="M66.7339 73.6618L49.7002 84.3595L50.8568 86.2012L67.8905 75.5035L66.7339 73.6618Z" fill="#E6E6E6"/>
<path d="M57.3864 50.329L55.7573 51.7698L66.4959 63.9119L68.125 62.4711L57.3864 50.329Z" fill="#E6E6E6"/>
<path d="M28.1423 67.0324L27.0872 65.1285L47.6947 53.7091L25.4744 36.869L26.7881 35.1349L51.6723 53.9921L28.1423 67.0324Z" fill="#E6E6E6"/>
<path d="M90.7772 66.7981C90.7784 64.4428 90.2022 62.123 89.0989 60.042C87.9956 57.9611 86.3989 56.1824 84.4486 54.8617C82.4984 53.541 80.2541 52.7186 77.9123 52.4665C75.5704 52.2145 73.2025 52.5404 71.0159 53.4159C68.8293 54.2913 66.8906 55.6895 65.3698 57.488C63.8489 59.2865 62.7922 61.4305 62.2922 63.7322C61.7922 66.0338 61.8642 68.423 62.5018 70.6904C63.1394 72.9578 64.3232 75.0343 65.9495 76.7381C67.9923 78.9161 69.1197 81.7961 69.0985 84.7822V85.2753H83.3556V84.9115C83.3833 81.8828 84.5879 78.9836 86.7147 76.827C89.3263 74.1427 90.7844 70.5433 90.7772 66.7981Z" fill="#FFD200"/>
<path d="M72.5023 85.3117C72.3859 85.312 72.2731 85.2719 72.1831 85.1981C72.0931 85.1244 72.0316 85.0216 72.0091 84.9075L68.9976 66.6809C68.9867 66.6159 68.9888 66.5493 69.0036 66.4851C69.0184 66.4208 69.0458 66.3601 69.084 66.3065C69.1223 66.2528 69.1708 66.2072 69.2267 66.1722C69.2826 66.1373 69.3449 66.1137 69.4099 66.1028C69.4749 66.092 69.5415 66.094 69.6057 66.1088C69.67 66.1236 69.7307 66.151 69.7843 66.1893C69.838 66.2276 69.8836 66.276 69.9186 66.332C69.9535 66.3879 69.9771 66.4501 69.988 66.5151L72.9995 84.7417C73.0207 84.8718 72.9904 85.005 72.9149 85.113C72.8394 85.221 72.7247 85.2952 72.5952 85.3198L72.5023 85.3117Z" fill="white"/>
<path d="M80.037 85.3117H79.9521C79.8227 85.2871 79.708 85.2129 79.6325 85.1049C79.557 84.9969 79.5266 84.8637 79.5479 84.7337L82.5594 66.5071C82.5814 66.3758 82.6546 66.2585 82.763 66.1812C82.8714 66.1039 83.0061 66.0728 83.1374 66.0948C83.2688 66.1168 83.386 66.19 83.4633 66.2984C83.5406 66.4068 83.5717 66.5415 83.5498 66.6728L80.5383 84.8994C80.5172 85.0164 80.4552 85.1221 80.3634 85.1977C80.2716 85.2732 80.1559 85.3136 80.037 85.3117Z" fill="white"/>
<path d="M84.5279 83.0642H68.2092V95.9469H84.5279V83.0642Z" fill="#24285B"/>
<path d="M77.85 70.3634C77.2153 70.3634 76.6009 69.9834 76.0188 69.2275C75.7844 68.9203 75.554 68.7788 75.3397 68.795C74.8547 68.8395 74.3049 69.6237 74.1271 70.0077C74.0665 70.1261 73.9613 70.2157 73.8347 70.2566C73.7081 70.2976 73.5705 70.2865 73.452 70.226C73.3335 70.1654 73.244 70.0602 73.203 69.9336C73.1621 69.807 73.1731 69.6694 73.2337 69.5509C73.3186 69.3852 74.0988 67.9097 75.2548 67.8046C75.5645 67.788 75.873 67.8541 76.1487 67.9962C76.4243 68.1383 76.6572 68.3512 76.8233 68.6131C77.1022 68.9729 77.5185 69.3973 77.9187 69.3528C78.3836 69.3043 78.7918 68.6656 78.8969 68.4474C78.9568 68.3325 79.0589 68.2452 79.1818 68.204C79.3046 68.1627 79.4387 68.1706 79.5558 68.2261C79.6729 68.2815 79.764 68.3801 79.81 68.5013C79.856 68.6224 79.8533 68.7567 79.8024 68.8758C79.7377 69.0133 79.1314 70.234 78.0278 70.3513L77.85 70.3634Z" fill="white"/>
<path opacity="0.21" d="M85.5197 60.6677C86.2878 58.896 85.0724 56.6627 82.805 55.6797C80.5376 54.6966 78.0768 55.3359 77.3086 57.1077C76.5405 58.8794 77.7558 61.1126 80.0232 62.0957C82.2907 63.0788 84.7515 62.4394 85.5197 60.6677Z" fill="white"/>
<path d="M70.8933 95.9469H81.8519C81.8519 96.6067 81.7219 97.2601 81.4694 97.8697C81.2169 98.4793 80.8468 99.0332 80.3802 99.4998C79.9137 99.9664 79.3598 100.336 78.7502 100.589C78.1406 100.841 77.4872 100.971 76.8274 100.971H75.9179C74.5853 100.971 73.3072 100.442 72.365 99.4998C71.4227 98.5575 70.8933 97.2795 70.8933 95.9469Z" fill="#24285B"/>
<path d="M56.1269 42.4434H43.2441C41.5251 42.4434 40.1316 43.8369 40.1316 45.5559V58.4386C40.1316 60.1576 41.5251 61.5512 43.2441 61.5512H56.1269C57.8459 61.5512 59.2394 60.1576 59.2394 58.4386V45.5559C59.2394 43.8369 57.8459 42.4434 56.1269 42.4434Z" fill="#ED1C24"/>
<path d="M115.374 46.0088H102.492C100.773 46.0088 99.3792 47.4023 99.3792 49.1213V62.0041C99.3792 63.7231 100.773 65.1166 102.492 65.1166H115.374C117.093 65.1166 118.487 63.7231 118.487 62.0041V49.1213C118.487 47.4023 117.093 46.0088 115.374 46.0088Z" fill="#ED1C24"/>
<path opacity="0.09" d="M115.374 46.0088H102.492C100.773 46.0088 99.3792 47.4023 99.3792 49.1213V62.0041C99.3792 63.7231 100.773 65.1166 102.492 65.1166H115.374C117.093 65.1166 118.487 63.7231 118.487 62.0041V49.1213C118.487 47.4023 117.093 46.0088 115.374 46.0088Z" fill="black"/>
<path d="M53.4591 74.5875H40.5764C38.8574 74.5875 37.4639 75.9811 37.4639 77.7001V90.5828C37.4639 92.3018 38.8574 93.6953 40.5764 93.6953H53.4591C55.1781 93.6953 56.5717 92.3018 56.5717 90.5828V77.7001C56.5717 75.9811 55.1781 74.5875 53.4591 74.5875Z" fill="#ED1C24"/>
<path opacity="0.6" d="M53.4591 74.5875H40.5764C38.8574 74.5875 37.4639 75.9811 37.4639 77.7001V90.5828C37.4639 92.3018 38.8574 93.6953 40.5764 93.6953H53.4591C55.1781 93.6953 56.5717 92.3018 56.5717 90.5828V77.7001C56.5717 75.9811 55.1781 74.5875 53.4591 74.5875Z" fill="white"/>
<path d="M108.038 80.0122H98.5749C97.3135 80.0122 96.291 81.0347 96.291 82.2961V91.759C96.291 93.0204 97.3135 94.0429 98.5749 94.0429H108.038C109.299 94.0429 110.322 93.0204 110.322 91.759V82.2961C110.322 81.0347 109.299 80.0122 108.038 80.0122Z" fill="#ED1C24"/>
<path d="M83.9015 26.6464H71.2855C69.6045 26.6464 68.2417 28.0091 68.2417 29.6902V42.3061C68.2417 43.9872 69.6045 45.3499 71.2855 45.3499H83.9015C85.5825 45.3499 86.9453 43.9872 86.9453 42.3061V29.6902C86.9453 28.0091 85.5825 26.6464 83.9015 26.6464Z" fill="#ED1C24"/>
<path opacity="0.46" d="M83.9015 26.6464H71.2855C69.6045 26.6464 68.2417 28.0091 68.2417 29.6902V42.3061C68.2417 43.9872 69.6045 45.3499 71.2855 45.3499H83.9015C85.5825 45.3499 86.9453 43.9872 86.9453 42.3061V29.6902C86.9453 28.0091 85.5825 26.6464 83.9015 26.6464Z" fill="white"/>
<path d="M29.9169 29.6658H22.0223C20.9708 29.6658 20.1184 30.5182 20.1184 31.5697V39.4642C20.1184 40.5157 20.9708 41.3681 22.0223 41.3681H29.9169C30.9684 41.3681 31.8208 40.5157 31.8208 39.4642V31.5697C31.8208 30.5182 30.9684 29.6658 29.9169 29.6658Z" fill="#ED1C24"/>
<path opacity="0.46" d="M29.9169 29.6658H22.0223C20.9708 29.6658 20.1184 30.5182 20.1184 31.5697V39.4642C20.1184 40.5157 20.9708 41.3681 22.0223 41.3681H29.9169C30.9684 41.3681 31.8208 40.5157 31.8208 39.4642V31.5697C31.8208 30.5182 30.9684 29.6658 29.9169 29.6658Z" fill="white"/>
<path d="M30.2726 62.1333H24.9529C24.243 62.1333 23.6675 62.7088 23.6675 63.4187V68.7384C23.6675 69.4483 24.243 70.0238 24.9529 70.0238H30.2726C30.9825 70.0238 31.558 69.4483 31.558 68.7384V63.4187C31.558 62.7088 30.9825 62.1333 30.2726 62.1333Z" fill="#ED1C24"/>
<path opacity="0.09" d="M30.2726 62.1333H24.9529C24.243 62.1333 23.6675 62.7088 23.6675 63.4187V68.7384C23.6675 69.4483 24.243 70.0238 24.9529 70.0238H30.2726C30.9825 70.0238 31.558 69.4483 31.558 68.7384V63.4187C31.558 62.7088 30.9825 62.1333 30.2726 62.1333Z" fill="black"/>
<path d="M120.274 70.6423H114.954C114.244 70.6423 113.669 71.2178 113.669 71.9278V77.2474C113.669 77.9573 114.244 78.5328 114.954 78.5328H120.274C120.984 78.5328 121.559 77.9573 121.559 77.2474V71.9278C121.559 71.2178 120.984 70.6423 120.274 70.6423Z" fill="#ED1C24"/>
<path opacity="0.6" d="M120.274 70.6423H114.954C114.244 70.6423 113.669 71.2178 113.669 71.9278V77.2474C113.669 77.9573 114.244 78.5328 114.954 78.5328H120.274C120.984 78.5328 121.559 77.9573 121.559 77.2474V71.9278C121.559 71.2178 120.984 70.6423 120.274 70.6423Z" fill="white"/>
<path d="M118.091 32.0547H112.771C112.061 32.0547 111.486 32.6302 111.486 33.3401V38.6598C111.486 39.3697 112.061 39.9452 112.771 39.9452H118.091C118.801 39.9452 119.376 39.3697 119.376 38.6598V33.3401C119.376 32.6302 118.801 32.0547 118.091 32.0547Z" fill="#ED1C24"/>
<path opacity="0.6" d="M118.091 32.0547H112.771C112.061 32.0547 111.486 32.6302 111.486 33.3401V38.6598C111.486 39.3697 112.061 39.9452 112.771 39.9452H118.091C118.801 39.9452 119.376 39.3697 119.376 38.6598V33.3401C119.376 32.6302 118.801 32.0547 118.091 32.0547Z" fill="white"/>
<path d="M139.378 45.6571H130.295C129.082 45.6571 128.1 46.6398 128.1 47.8521V56.935C128.1 58.1473 129.082 59.13 130.295 59.13H139.378C140.59 59.13 141.573 58.1473 141.573 56.935V47.8521C141.573 46.6398 140.59 45.6571 139.378 45.6571Z" fill="#ED1C24"/>
<path d="M60.792 26.8806H51.6726V36H60.792V26.8806Z" fill="#E6E6E6"/>
<path d="M103.255 33.8092H96.4685V38.8499H103.255V33.8092Z" fill="#E6E6E6"/>
</svg>
