<svg width="40" height="50" viewBox="0 0 40 50" fill="none" xmlns="http://www.w3.org/2000/svg">
<path d="M36.0852 21.5662C35.8743 20.2612 33.707 20.6713 33.9065 21.9059C34.137 23.3321 34.3675 24.7584 34.598 26.1846C33.2835 23.8365 30.6801 22.7335 27.9845 22.5921C28.0267 21.765 28.0324 20.9467 28.01 20.1571C27.9569 18.2898 27.5256 16.4035 26.0367 15.1533C23.7435 13.2278 20.7836 13.806 18.2399 15.02C17.8257 10.9983 16.0057 7.4178 11.5006 6.38121C8.67615 5.73133 5.49454 6.2386 2.82733 7.31342C2.16934 7.57858 3.84613 8.90497 4.54933 8.6216C8.45775 7.0466 14.1164 6.60764 15.757 11.4001C16.2431 12.8201 16.4605 14.381 16.4792 15.9885C16.2597 16.1246 16.0457 16.2622 15.8398 16.4C12.1168 18.8923 8.15931 22.8306 7.08498 27.3271C6.45075 29.9815 7.69367 35.1412 11.4856 33.6379C13.4145 32.8731 14.7434 30.5628 15.6151 28.8193C17.1988 25.6514 18.03 22.0752 18.2792 18.555C18.3113 18.1009 18.3296 17.6449 18.3345 17.1897C19.0333 16.778 19.7148 16.4262 20.3555 16.146C21.4296 15.6761 22.9015 15.1139 24.0937 15.3741C25.7078 15.7262 25.9294 17.7291 25.997 19.121C26.0447 20.1024 26.0622 21.3468 25.9785 22.6597C21.5121 23.192 17.6301 26.2183 19.9783 30.3915C21.7656 33.5677 25.0841 32.1767 26.405 29.5015C27.2491 27.7921 27.6907 25.8223 27.8887 23.8497C30.1951 23.7623 32.4052 24.6663 33.1919 27.002C31.9738 26.5189 30.7557 26.0358 29.5377 25.5528C28.3593 25.0854 27.2984 26.9097 28.6153 27.432C30.9973 28.3767 33.3794 29.3214 35.7614 30.2661C36.4258 30.5296 37.4373 29.9323 37.3119 29.1566C36.903 26.6265 36.4941 24.0963 36.0852 21.5662ZM14.1272 26.7712C13.4606 28.2878 12.6335 29.8394 11.484 31.0507C11.0709 31.4861 10.4824 32.1047 9.87892 32.2835C9.12749 32.5061 9.15114 32.035 8.97275 31.0552C8.12233 26.3841 12.1657 21.5373 16.3549 18.4917C16.043 21.4313 15.1821 24.3711 14.1272 26.7712ZM22.8902 30.4719C21.7883 31.1976 21.6397 30.6971 21.4595 29.4814C21.1918 27.6758 22.066 26.1847 23.551 25.2086C24.2263 24.7648 25.0088 24.416 25.8318 24.1813C25.5012 26.7388 24.6953 29.2829 22.8902 30.4719Z" fill="#FBB040"/>
</svg>
