<svg width="545" height="411" viewBox="0 0 545 411" fill="none" xmlns="http://www.w3.org/2000/svg">
<path opacity="0.45" d="M452.913 324.737C452.962 313.202 372.084 303.511 272.267 303.093C172.45 302.675 91.4937 311.688 91.4454 323.223C91.3971 334.759 172.275 344.449 272.092 344.867C371.909 345.285 452.865 336.273 452.913 324.737Z" fill="#E6E6E6"/>
<path d="M272.99 226.024L261.518 240.412C249.321 255.719 243.565 275.174 245.468 294.653L247.062 310.853C247.12 311.426 247.336 311.972 247.686 312.43C248.036 312.888 248.505 313.24 249.043 313.447C249.58 313.655 250.165 313.709 250.732 313.605C251.298 313.501 251.825 313.241 252.253 312.856L281.274 286.505L272.99 226.024Z" fill="#A8A8A8"/>
<path d="M353.555 226.024L365.027 240.412C377.23 255.715 382.988 275.173 381.078 294.653L379.497 310.853C379.439 311.426 379.223 311.972 378.873 312.43C378.523 312.888 378.054 313.24 377.516 313.447C376.979 313.655 376.394 313.709 375.827 313.605C375.261 313.501 374.734 313.241 374.306 312.856L345.285 286.505L353.555 226.024Z" fill="#A8A8A8"/>
<path d="M313.375 98.3302C313.375 98.3302 228.587 144.86 281.329 286.505H345.435C398.109 144.86 313.375 98.3302 313.375 98.3302Z" fill="#E6E6E6"/>
<path d="M345.38 286.505L342.532 297.364H284.367L281.274 285.211L345.38 286.505Z" fill="#A8A8A8"/>
<path d="M313.934 203.202C325.959 203.202 335.707 193.454 335.707 181.429C335.707 169.404 325.959 159.656 313.934 159.656C301.909 159.656 292.161 169.404 292.161 181.429C292.161 193.454 301.909 203.202 313.934 203.202Z" fill="white" stroke="#878787" stroke-width="5.45" stroke-miterlimit="10"/>
<path d="M237.784 244.022L218.872 263.765C219.839 258.151 220.793 250.658 222.183 240.698C227.469 202.548 198.693 197.861 198.693 197.861C198.693 197.861 185.164 277.499 201.418 279.202C202.577 279.311 203.639 279.42 204.634 279.488L203.707 286.042C229.595 291.11 244.978 246.965 244.978 246.965L237.784 244.022Z" fill="#ED1C24"/>
<path opacity="0.46" d="M237.784 244.022L218.872 263.765C219.839 258.151 220.793 250.658 222.183 240.698C227.469 202.548 198.693 197.861 198.693 197.861C198.693 197.861 185.164 277.499 201.418 279.202C202.577 279.311 203.639 279.42 204.634 279.488L203.707 286.042C229.595 291.11 244.978 246.965 244.978 246.965L237.784 244.022Z" fill="white"/>
<path d="M198.694 197.861C196.551 197.102 194.313 196.643 192.045 196.498C175.181 195.659 158.343 198.601 142.763 205.109C114.151 216.854 152.478 296.915 152.478 296.915L200.901 293.495C200.901 293.495 235.154 210.995 198.694 197.861Z" fill="#ED1C24"/>
<path opacity="0.08" d="M150.965 210.995C150.965 210.995 169.386 211.922 168.432 240.466C167.478 269.011 180.436 261.612 180.436 261.612L201.65 228.108C202.569 227.997 203.502 228.075 204.391 228.336C205.28 228.598 206.106 229.038 206.819 229.63C207.532 230.221 208.117 230.952 208.537 231.778C208.958 232.603 209.206 233.506 209.266 234.43C209.852 239.008 201.745 258.465 195.914 271.695C194.298 275.381 193.909 279.488 194.801 283.412C195.694 287.336 197.822 290.87 200.873 293.495L152.45 296.915L150.774 293.29L150.965 210.995Z" fill="black"/>
<path d="M162.696 171.06C164.919 174.17 166.711 177.566 168.024 181.156C168.153 181.593 168.194 182.051 168.145 182.503C168.097 182.956 167.959 183.395 167.739 183.794C167.52 184.193 167.224 184.544 166.868 184.828C166.513 185.112 166.104 185.323 165.666 185.448C164.285 185.944 162.789 186.028 161.36 185.692C159.931 185.356 158.63 184.614 157.614 183.554L152.777 179.467C151.897 178.541 151.327 177.365 151.144 176.101C150.961 174.837 151.174 173.547 151.755 172.409C153.676 167.995 160.421 167.531 162.696 171.06Z" fill="#F4A28C"/>
<path d="M155.638 179.167L153.09 201.567L165.53 202.098L162.396 185.585L155.638 179.167Z" fill="#F4A28C"/>
<path d="M161.374 172.178C159.582 173.323 157.667 174.264 155.665 174.984C156.677 175.477 157.521 176.257 158.093 177.226C158.664 178.195 158.938 179.311 158.881 180.434C158.848 181.519 158.441 182.558 157.728 183.376C157.015 184.193 156.04 184.738 154.97 184.917L150.57 177.26C149.901 176.187 149.535 174.953 149.511 173.688C149.487 172.424 149.806 171.177 150.433 170.079C150.976 169.135 151.577 168.225 152.232 167.354C153.908 165.188 157.982 164.738 159.044 162.109C159.155 161.844 159.333 161.613 159.56 161.437C159.787 161.262 160.055 161.148 160.339 161.106C160.623 161.065 160.913 161.098 161.18 161.202C161.447 161.306 161.683 161.478 161.865 161.7C163.581 163.812 165.325 167.695 162.941 170.815C162.491 171.346 161.962 171.805 161.374 172.178Z" fill="#24285B"/>
<path d="M159.412 179.849C159.412 179.849 158.05 177.6 156.415 178.786C154.78 179.971 156.796 183.241 159.317 182.165L159.412 179.849Z" fill="#F4A28C"/>
<path d="M165.04 174.712L168.037 176.074C168.207 176.149 168.355 176.265 168.469 176.412C168.582 176.559 168.656 176.732 168.685 176.916C168.713 177.099 168.695 177.287 168.632 177.461C168.569 177.635 168.462 177.791 168.323 177.914L166.307 179.685L165.04 174.712Z" fill="#F4A28C"/>
<path opacity="0.31" d="M162.219 186.13C160.624 186.123 159.066 185.649 157.736 184.767C157.736 184.767 157.913 188.923 163.295 191.757L162.219 186.13Z" fill="#CE8172"/>
<path d="M152.478 296.955C152.478 296.955 127.339 306.18 133.403 320.2C137.913 330.718 161.02 321.848 176.158 317.475C181.564 315.908 187.215 315.362 192.821 315.867C203.204 316.793 216.379 320.036 220.848 314.028C227.415 305.199 219.077 297.391 200.955 293.59L152.478 296.955Z" fill="#24285B"/>
<path d="M157.124 220.369C156.424 217.18 154.723 214.299 152.269 212.145C149.816 209.991 146.738 208.677 143.486 208.395C140.233 208.114 136.975 208.879 134.188 210.58C131.401 212.281 129.231 214.827 127.993 217.849C125.322 224.623 124.178 231.904 124.642 239.172C125.909 270.509 131.972 297.078 155.502 292.977C179.033 288.876 201.65 239.444 201.65 239.444L190.955 233.34L157.71 265.332C157.71 265.332 161.484 239.744 157.124 220.369Z" fill="#ED1C24"/>
<path opacity="0.46" d="M157.124 220.369C156.424 217.18 154.723 214.299 152.269 212.145C149.816 209.991 146.738 208.677 143.486 208.395C140.233 208.114 136.975 208.879 134.188 210.58C131.401 212.281 129.231 214.827 127.993 217.849C125.322 224.623 124.178 231.904 124.642 239.172C125.909 270.509 131.972 297.078 155.502 292.977C179.033 288.876 201.65 239.444 201.65 239.444L190.955 233.34L157.71 265.332C157.71 265.332 161.484 239.744 157.124 220.369Z" fill="white"/>
<path d="M192.262 234.076C192.262 234.076 197.93 223.953 203.871 226.092C209.811 228.231 201.595 230.97 201.595 230.97C201.595 230.97 205.765 234.648 200.233 238.613L192.262 234.076Z" fill="#F4A28C"/>
<path d="M182.575 308.646L184.114 315.894C184.114 315.894 191.54 321.344 196.227 317.979C200.914 314.613 193.734 310.608 182.575 308.646Z" fill="#ED1C24"/>
<path opacity="0.55" d="M292.352 216.909H279.899C278.266 216.909 276.942 218.232 276.942 219.865V232.318C276.942 233.951 278.266 235.275 279.899 235.275H292.352C293.985 235.275 295.308 233.951 295.308 232.318V219.865C295.308 218.232 293.985 216.909 292.352 216.909Z" fill="#878787"/>
<path d="M150.175 202.384C150.175 202.384 150.079 197.084 153.881 194.618C156.742 192.751 163.418 195.981 166.456 197.629C167.194 198.011 167.783 198.629 168.129 199.385C168.475 200.141 168.557 200.99 168.364 201.798C168.178 202.428 167.81 202.988 167.305 203.408C166.801 203.828 166.183 204.088 165.53 204.156C161.047 205.068 150.175 202.384 150.175 202.384Z" fill="#ED1C24"/>
<path opacity="0.46" d="M150.175 202.384C150.175 202.384 150.079 197.084 153.881 194.618C156.742 192.751 163.418 195.981 166.456 197.629C167.194 198.011 167.783 198.629 168.129 199.385C168.475 200.141 168.557 200.99 168.364 201.798C168.178 202.428 167.81 202.988 167.305 203.408C166.801 203.828 166.183 204.088 165.53 204.156C161.047 205.068 150.175 202.384 150.175 202.384Z" fill="white"/>
<path d="M237.075 222.904C237.075 222.904 232.987 197.125 245.086 194.223C257.185 191.321 244.664 217.481 260.074 213.897C275.484 210.314 271.423 190.095 284.381 193.569C294.736 196.294 286.193 226.092 286.193 226.092" stroke="#24285B" stroke-width="1.3625" stroke-miterlimit="10"/>
<path d="M246.282 218.396L231.499 216.284L227.742 242.586L242.525 244.698L246.282 218.396Z" fill="#FFD200"/>
<path d="M245.018 246.965C245.018 246.965 248.343 234.594 240.399 234.567C232.456 234.539 235.453 247.619 245.018 246.965Z" fill="#F4A28C"/>
<path d="M341.238 67.5376H286.629V76.9389H341.238V67.5376Z" fill="#24285B"/>
<path d="M327.926 67.5376H286.629V76.9389H327.926V67.5376Z" fill="#ED1C24"/>
<path d="M275.552 143.497H351.102C342.37 125.63 331.114 109.111 317.68 94.447C317.124 93.8482 316.451 93.3706 315.702 93.0439C314.953 92.7173 314.144 92.5487 313.327 92.5487C312.51 92.5487 311.702 92.7173 310.953 93.0439C310.203 93.3706 309.53 93.8482 308.974 94.447C300.867 103.194 283.536 123.373 275.552 143.497Z" fill="#A8A8A8"/>
<path opacity="0.58" d="M414.813 306.466C414.813 306.466 423.302 304.177 425.182 296.301C425.182 296.301 412.061 293.576 411.625 307.201L414.813 306.466Z" fill="#ED1C24"/>
<path opacity="0.73" d="M413.778 305.621C413.778 305.621 419.746 296.274 414.568 287.513C411.698 289.431 409.574 292.275 408.549 295.571C407.525 298.867 407.663 302.415 408.941 305.621H413.778Z" fill="#ED1C24"/>
<path d="M412.265 305.621C412.265 305.621 409.172 295.715 399.73 293.808C399.73 293.808 397.918 300.212 405.793 305.621H412.265Z" fill="#ED1C24"/>
<path d="M418.41 305.417L416.639 317.161H405.821L404.268 305.417H418.41Z" fill="#24285B"/>
<path d="M182.371 101.137H133.144V135.663H182.371V101.137Z" fill="#FFD200"/>
<path d="M164.031 130.567L157.968 147.544L152.545 130.567H164.031Z" fill="#FFD200"/>
<path d="M149.521 119.463L155.434 126.343L165.694 111.737" stroke="white" stroke-width="4.0875" stroke-linecap="round" stroke-linejoin="round"/>
</svg>
