<svg width="546" height="411" viewBox="0 0 546 411" fill="none" xmlns="http://www.w3.org/2000/svg">
<path opacity="0.3" d="M157.643 106.757C117.917 119.177 86.5891 148.406 81.8039 202.324C77.7141 247.762 93.2283 331.29 158.407 350.921C260.19 381.582 437.294 368.235 456.68 289.955C469.808 236.896 473.857 141.875 400.104 112.306C350.044 92.2656 242.808 80.1596 157.643 106.757Z" fill="#E6E6E6"/>
<path d="M351.87 119.518L368.093 139.367C369.002 140.478 370.164 141.356 371.481 141.925C372.799 142.494 374.234 142.739 375.665 142.639C377.097 142.539 378.484 142.097 379.71 141.349C380.935 140.602 381.963 139.572 382.708 138.345L390.138 126.893L396.245 131.378C396.245 131.378 390.288 147.738 379.777 156.585C369.266 165.433 342.764 137.199 342.764 137.199L351.87 119.518Z" fill="#ED1C24"/>
<path opacity="0.09" d="M351.87 119.518L368.093 139.367C369.002 140.478 370.164 141.356 371.481 141.925C372.799 142.494 374.234 142.739 375.665 142.639C377.097 142.539 378.484 142.097 379.71 141.349C380.935 140.602 381.963 139.572 382.708 138.345L390.138 126.893L396.245 131.378C396.245 131.378 390.288 147.738 379.777 156.585C369.266 165.433 342.764 137.199 342.764 137.199L351.87 119.518Z" fill="black"/>
<path d="M354.665 99.5046C354.417 102.303 353.788 105.055 352.797 107.684C352.518 108.291 352.01 108.763 351.384 108.995C350.758 109.228 350.065 109.203 349.457 108.925C348.46 108.535 347.597 107.866 346.97 106.998C346.344 106.13 345.982 105.1 345.926 104.031L345.218 99.4637C345.174 98.5314 345.421 97.6087 345.924 96.8225C346.427 96.0363 347.161 95.4254 348.026 95.074C351.161 93.5198 355.101 96.4372 354.665 99.5046Z" fill="#F4A28C"/>
<path d="M345.354 100.227L339.942 115.714L348.694 118.086L349.117 105.871L345.354 100.227Z" fill="#F4A28C"/>
<path d="M354.215 102.64L355.251 104.78C355.312 104.901 355.341 105.035 355.335 105.17C355.328 105.305 355.288 105.436 355.217 105.551C355.146 105.666 355.047 105.761 354.928 105.826C354.81 105.892 354.678 105.926 354.543 105.926H352.593L354.215 102.64Z" fill="#F4A28C"/>
<path opacity="0.31" d="M349.13 108.543C348.074 108.067 347.182 107.289 346.567 106.307C346.485 108.684 347.308 111.004 348.871 112.797L349.13 108.543Z" fill="#CE8172"/>
<path d="M343.636 105.135L346.649 105.408C346.649 105.408 350.385 102.681 350.153 98.6866C350.153 98.6866 353.179 101.25 355.879 99.2047C358.578 97.1598 357.16 92.8245 353.902 91.4476C350.644 90.0707 341.046 88.5438 343.636 105.135Z" fill="#FFD200"/>
<path d="M339.942 115.728L348.694 118.086C348.694 118.086 365.053 126.266 365.34 142.625C365.626 158.985 343.977 181.697 343.977 181.697L315.771 169.264C315.771 169.264 308.354 115.182 339.942 115.728Z" fill="#ED1C24"/>
<path d="M391.747 128.12C391.747 128.12 393.11 122.285 397.609 122.53C402.108 122.776 395.659 130.996 395.659 130.996L391.747 128.12Z" fill="#F4A28C"/>
<path d="M339.464 124.93L337.161 58.7289L329.84 57.5292C329.84 57.5292 318.184 103.158 320.719 126.798C323.255 150.437 339.464 134.118 339.464 124.93Z" fill="#ED1C24"/>
<path opacity="0.46" d="M339.464 124.93L337.161 58.7289L329.84 57.5292C329.84 57.5292 318.184 103.158 320.719 126.798C323.255 150.437 339.464 134.118 339.464 124.93Z" fill="white"/>
<path d="M336.016 58.6334C336.016 58.6334 339.192 53.8074 336.452 51.6534C333.712 49.4994 331.98 48.9268 331.094 51.5034C330.552 53.4866 330.399 55.556 330.644 57.5973L336.016 58.6334Z" fill="#F4A28C"/>
<path d="M197.847 98.714C197.54 101.289 197.581 103.893 197.969 106.457C198.034 106.761 198.158 107.048 198.335 107.302C198.511 107.557 198.737 107.774 198.999 107.94C199.26 108.106 199.552 108.219 199.858 108.271C200.163 108.323 200.476 108.314 200.778 108.243C201.762 108.085 202.679 107.646 203.42 106.978C204.16 106.311 204.691 105.443 204.949 104.481L206.476 100.391C206.699 99.5508 206.654 98.6625 206.349 97.849C206.043 97.0355 205.492 96.3372 204.772 95.8511C202.209 93.9425 198.037 95.8647 197.847 98.714Z" fill="#F4A28C"/>
<path d="M206.204 101.182L208.112 116.355L199.674 116.818L201.678 105.585L206.204 101.182Z" fill="#F4A28C"/>
<path d="M202.673 102.872C202.673 102.872 202.768 101.072 204.104 101.25C205.44 101.427 205.331 103.976 203.491 104.208L202.673 102.872Z" fill="#F4A28C"/>
<path d="M197.683 101.645L196.32 103.404C196.244 103.503 196.194 103.62 196.174 103.743C196.155 103.867 196.167 103.994 196.209 104.112C196.251 104.23 196.321 104.335 196.415 104.419C196.508 104.502 196.621 104.561 196.742 104.59L198.515 104.985L197.683 101.645Z" fill="#F4A28C"/>
<path d="M199.673 116.887C199.673 116.887 186.777 118.795 182.946 102.436C179.115 86.0763 196.402 73.8067 196.402 73.8067C196.402 73.8067 205.113 71.5028 200.982 66.8676C196.851 62.2324 191.439 70.3985 191.439 70.3985C191.439 70.3985 165.264 82.4636 170.526 105.612C175.789 128.761 190.185 136.15 190.185 136.15L199.673 116.887Z" fill="#F4A28C"/>
<path opacity="0.31" d="M201.132 108.025C202.172 107.789 203.12 107.254 203.859 106.485C203.46 108.664 202.253 110.612 200.478 111.938L201.132 108.025Z" fill="#CE8172"/>
<path d="M188.781 123.526C188.781 123.526 171.535 141.63 184.364 152.536C197.192 163.443 203.3 169.618 203.3 169.618L227.157 162.093C227.157 162.093 226.108 142.68 229.884 131.556C233.66 120.431 227.362 114.037 220.941 113.765C214.52 113.492 204.881 110.152 188.781 123.526Z" fill="#ED1C24"/>
<path opacity="0.09" d="M206.163 113.969C206.163 113.969 196.92 126.389 204.868 136.204C212.816 146.02 215.992 165.624 215.992 165.624L227.157 162.093C227.157 162.093 226.626 143.852 228.698 136.191C229.723 132.93 230.511 129.599 231.056 126.225C231.384 122.885 217.792 111.597 217.792 111.597L206.163 113.969Z" fill="black"/>
<path d="M223.354 134.309C214.778 140.158 205.44 127.997 213.061 120.949C215.182 118.95 217.461 117.127 219.877 115.496C228.452 109.852 237.723 86.0354 226.694 73.6159C226.694 73.6159 220.382 66.1042 225.33 63.6503C230.279 61.1964 231.179 72.3344 231.179 72.3344C231.179 72.3344 249.351 91.6521 240.354 109.934C235.473 119.818 229.87 129.865 223.354 134.309Z" fill="#F4A28C"/>
<path d="M202.086 99.9954C202.086 99.9954 202.182 116.546 212.856 116.219C223.531 115.891 226.012 110.684 227.553 106.417C229.093 102.149 210.321 110.943 209.516 99.1638C208.712 87.3851 198.992 89.9617 196.497 93.9152C194.002 97.8687 202.086 99.9954 202.086 99.9954Z" fill="#24285B"/>
<path d="M256.468 49.8538C256.986 50.2901 258.649 48.2315 258.867 47.7816C259.835 46.2033 260.239 44.3433 260.012 42.5057C259.726 41.3878 258.581 39.6837 257.286 39.6428C256.555 39.7273 255.863 40.0148 255.287 40.4725C254.711 40.9303 254.275 41.5402 254.028 42.2331C253.475 43.2546 252.979 44.3059 252.542 45.3822C252.201 46.3638 252.719 46.7455 253.455 47.359C254.45 48.2042 255.459 49.0222 256.468 49.8538Z" fill="#F4A28C"/>
<path d="M254.723 104.508C254.723 104.508 252.433 72.8796 258.622 50.2491L252.542 45.3822C252.542 45.3822 234.942 86.1035 241.636 127.411L254.723 104.508Z" fill="#ED1C24"/>
<path d="M303.379 59.6968C302.724 60.1058 301.661 57.6246 301.565 57.2701C301.034 55.3343 299.752 53.1803 301.006 51.1763C301.382 50.6511 301.88 50.2253 302.457 49.9355C303.035 49.6458 303.674 49.5008 304.319 49.513C305.682 49.7857 306.5 51.2853 306.882 52.4986C307.293 53.5859 307.639 54.6967 307.918 55.8251C308.109 56.8611 307.55 57.1883 306.732 57.6519L303.379 59.6968Z" fill="#F4A28C"/>
<path d="M297.271 114.024C297.271 114.024 304.087 83.0634 301.184 59.7785L307.918 55.825C307.918 55.825 319.479 98.6457 306.978 138.576L297.271 114.024Z" fill="#ED1C24"/>
<path opacity="0.46" d="M254.723 104.508C254.723 104.508 252.433 72.8796 258.622 50.2491L252.542 45.3822C252.542 45.3822 234.942 86.1035 241.636 127.411L254.723 104.508Z" fill="white"/>
<path opacity="0.46" d="M297.271 114.024C297.271 114.024 304.087 83.0634 301.184 59.7785L307.918 55.825C307.918 55.825 319.479 98.6457 306.978 138.576L297.271 114.024Z" fill="white"/>
<path d="M307.932 130.342C305.355 157.608 290.782 180.388 290.782 180.388L255.691 178.398C255.691 178.398 217.519 103.335 266.597 102.258H268.765H276.331C278.537 102.362 280.734 102.627 282.902 103.049C283.992 103.254 285.165 103.513 286.406 103.826C288.17 104.277 289.905 104.837 291.6 105.503C300.338 108.898 309.295 115.919 307.932 130.342Z" fill="#ED1C24"/>
<path d="M292.69 188.895L290.768 180.388L255.677 178.398L254.723 188.895H292.69Z" fill="#24285B"/>
<path opacity="0.08" d="M291.627 105.476C290.809 110.752 288.764 116.191 283.924 118.4C273.291 123.239 271.941 112.729 271.941 112.729C270.578 110.602 271.941 106.566 274.109 102.667L281.675 102.899C281.675 102.899 282.111 102.899 282.888 103.022C283.979 103.226 285.151 103.485 286.392 103.799C288.17 104.248 289.919 104.808 291.627 105.476Z" fill="black"/>
<path d="M270.169 100.841C270.567 102.321 270.876 103.823 271.096 105.339C271.382 107.412 272.377 110.452 275.731 110.711C280.912 111.12 281.416 102.954 281.416 102.954C281.416 102.954 283.829 95.0876 278.226 94.6241C273.168 94.2151 268.438 94.0379 270.169 100.841Z" fill="#F4A28C"/>
<path d="M281.13 103.254C281.13 103.254 281.13 100.786 283.311 100.663C285.492 100.541 285.083 105.244 281.13 103.254Z" fill="#F4A28C"/>
<path d="M271.628 102.926C271.628 102.926 272.132 100.513 270.06 99.9272C267.988 99.341 267.347 103.963 271.628 102.926Z" fill="#F4A28C"/>
<path d="M270.169 100.841C270.169 100.841 261.812 100.527 264.866 94.0242C267.92 87.5214 269.201 92.0338 270.442 87.2078C271.682 82.3818 273.168 81.2639 275.895 82.9952C278.622 84.7266 276.618 89.1846 280.353 87.6031C284.088 86.0217 286.597 84.6448 287.66 87.7667C288.723 90.8887 288.165 92.4837 285.792 93.8334C283.42 95.183 287.769 99.082 281.703 101.481C275.636 103.881 271.696 97.3915 271.696 97.3915L270.169 100.841Z" fill="#24285B"/>
<path d="M371.038 158.439V237.728C371.051 247.363 369.162 256.906 365.481 265.811C361.799 274.715 356.397 282.805 349.584 289.619C342.771 296.432 334.681 301.834 325.776 305.515C316.872 309.197 307.329 311.085 297.694 311.073H247.579C237.947 311.076 228.407 309.182 219.507 305.497C210.607 301.812 202.52 296.41 195.709 289.599C188.897 282.787 183.495 274.7 179.81 265.8C176.126 256.9 174.231 247.361 174.235 237.728V158.439H371.038Z" fill="#FFD200"/>
<path d="M291.136 291.591H254.123V361.201H291.136V291.591Z" fill="#FFD200"/>
<path d="M332.703 348.318H212.556V371.357H332.703V348.318Z" fill="#24285B"/>
<path d="M175.23 249.793H163.492C154.547 249.614 146.03 245.936 139.767 239.547C133.505 233.158 129.997 224.569 129.997 215.622C129.997 206.676 133.505 198.087 139.767 191.698C146.03 185.309 154.547 181.63 163.492 181.452H174.235V167.819H163.492C150.953 168.031 139 173.16 130.208 182.102C121.416 191.044 116.489 203.082 116.489 215.622C116.489 228.163 121.416 240.201 130.208 249.143C139 258.085 150.953 263.214 163.492 263.426H178.856C177.211 259.009 175.997 254.444 175.23 249.793Z" fill="#FFD200"/>
<path d="M381.727 167.819H370.984V181.452H381.727C390.671 181.63 399.189 185.309 405.451 191.698C411.714 198.087 415.221 206.676 415.221 215.622C415.221 224.569 411.714 233.158 405.451 239.547C399.189 245.936 390.671 249.614 381.727 249.793H369.989C369.221 254.444 368.007 259.009 366.362 263.426H381.727C394.265 263.214 406.218 258.085 415.01 249.143C423.803 240.201 428.73 228.163 428.73 215.622C428.73 203.082 423.803 191.044 415.01 182.102C406.218 173.16 394.265 168.031 381.727 167.819Z" fill="#FFD200"/>
<path opacity="0.3" d="M191.616 249.875C192.257 256.241 192.979 262.69 195.311 268.675C197.927 275.305 202.268 281.117 207.884 285.508C213.499 289.899 220.186 292.71 227.252 293.65C230.906 294.086 235.678 293.2 236.386 289.56C236.891 287.024 235.023 284.707 233.319 282.744C218.214 264.326 217.232 238.246 219.523 214.579C220.245 207.109 221.213 199.583 220.395 192.126C219.577 184.669 216.714 177.13 211.002 172.277C207.035 168.896 199.809 165.815 195.202 169.646C193.328 171.384 191.961 173.599 191.248 176.053C189.162 182.201 189.203 188.677 189.585 195.139C189.885 200.129 188.808 204.791 188.958 209.822C189.385 223.164 190.271 236.515 191.616 249.875Z" fill="white"/>
<path d="M171.174 293.305L145.014 286.817L143.19 294.174L169.349 300.662L171.174 293.305Z" fill="#F2F2F2"/>
<path d="M228.998 320.348L202.443 324.959L203.74 332.427L230.295 327.816L228.998 320.348Z" fill="#F2F2F2"/>
<path d="M372.023 307.682L347.833 319.569L351.176 326.372L375.366 314.485L372.023 307.682Z" fill="#F2F2F2"/>
<path d="M159.093 138.673L144.986 145.606L146.934 149.57L161.041 142.638L159.093 138.673Z" fill="#F2F2F2"/>
<path d="M147.052 104.119L131.657 100.945L130.765 105.271L146.16 108.445L147.052 104.119Z" fill="#F2F2F2"/>
<path d="M417.971 152.577L402.576 149.403L401.684 153.729L417.079 156.903L417.971 152.577Z" fill="#F2F2F2"/>
<path d="M386.79 94.0625L373.647 102.686L376.071 106.379L389.213 97.7556L386.79 94.0625Z" fill="#F2F2F2"/>
<path d="M412.503 277.39L385.566 278.284L385.817 285.859L412.755 284.966L412.503 277.39Z" fill="#F2F2F2"/>
<path opacity="0.43" d="M274.858 192.753L285.192 213.68C285.366 214.039 285.624 214.35 285.945 214.588C286.265 214.825 286.638 214.981 287.033 215.043L310.127 218.397C310.58 218.462 311.006 218.653 311.356 218.948C311.707 219.243 311.968 219.63 312.11 220.065C312.251 220.501 312.269 220.967 312.159 221.412C312.05 221.857 311.818 222.262 311.49 222.582L294.776 238.86C294.492 239.14 294.279 239.484 294.156 239.864C294.033 240.243 294.002 240.647 294.067 241.041L298.021 264.026C298.099 264.477 298.049 264.941 297.876 265.365C297.704 265.79 297.417 266.157 297.047 266.427C296.677 266.696 296.238 266.857 295.782 266.89C295.325 266.924 294.868 266.829 294.463 266.616L273.809 255.71C273.456 255.521 273.063 255.423 272.664 255.423C272.264 255.423 271.871 255.521 271.518 255.71L250.865 266.616C250.459 266.829 250.002 266.924 249.546 266.89C249.089 266.857 248.651 266.696 248.28 266.427C247.91 266.157 247.623 265.79 247.451 265.365C247.279 264.941 247.229 264.477 247.306 264.026L251.26 241.041C251.325 240.647 251.294 240.243 251.171 239.864C251.048 239.484 250.835 239.14 250.551 238.86L233.837 222.582C233.509 222.262 233.278 221.857 233.168 221.412C233.059 220.967 233.076 220.501 233.218 220.065C233.359 219.63 233.62 219.243 233.971 218.948C234.321 218.653 234.747 218.462 235.201 218.397L258.295 215.043C258.689 214.981 259.062 214.825 259.383 214.588C259.703 214.35 259.961 214.039 260.135 213.68L270.469 192.753C270.669 192.341 270.981 191.994 271.369 191.751C271.757 191.508 272.206 191.38 272.664 191.38C273.121 191.38 273.57 191.508 273.958 191.751C274.346 191.994 274.658 192.341 274.858 192.753Z" fill="white"/>
</svg>
