<svg width="27" height="26" viewBox="0 0 27 26" fill="none" xmlns="http://www.w3.org/2000/svg">
<path d="M13.4873 25.502C20.5295 25.502 26.2383 19.7932 26.2383 12.751C26.2383 5.70881 20.5295 0 13.4873 0C6.44514 0 0.736328 5.70881 0.736328 12.751C0.736328 19.7932 6.44514 25.502 13.4873 25.502Z" fill="#FBB040"/>
<path d="M13.4872 19.9364C13.1219 19.9364 12.7715 19.7913 12.5131 19.5329C12.2548 19.2746 12.1096 18.9242 12.1096 18.5588V6.96499C12.1096 6.59963 12.2548 6.24924 12.5131 5.99089C12.7715 5.73254 13.1219 5.5874 13.4872 5.5874C13.8526 5.5874 14.203 5.73254 14.4613 5.99089C14.7197 6.24924 14.8648 6.59963 14.8648 6.96499V18.5368C14.8677 18.7195 14.8343 18.901 14.7663 19.0707C14.6984 19.2404 14.5974 19.3949 14.4692 19.5252C14.341 19.6554 14.1881 19.7589 14.0195 19.8295C13.8509 19.9001 13.67 19.9364 13.4872 19.9364Z" fill="white"/>
<path d="M19.4878 14.1286H7.87198C7.50662 14.1286 7.15622 13.9835 6.89787 13.7251C6.63952 13.4668 6.49438 13.1164 6.49438 12.751C6.49438 12.3856 6.63952 12.0353 6.89787 11.7769C7.15622 11.5186 7.50662 11.3734 7.87198 11.3734H19.4878C19.8532 11.3734 20.2036 11.5186 20.4619 11.7769C20.7203 12.0353 20.8654 12.3856 20.8654 12.751C20.8654 13.1164 20.7203 13.4668 20.4619 13.7251C20.2036 13.9835 19.8532 14.1286 19.4878 14.1286Z" fill="white"/>
</svg>
