<svg width="1440" height="400"  viewBox="0 0 1440 300" fill="none" xmlns="http://www.w3.org/2000/svg">
<rect x="-0.000488281" y="2" width="1440" height="580" fill="#1C064B"/>
<path d="M4.50817 34.6167C4.50817 34.6167 136.171 485.562 228.546 360.142C280.308 289.863 168.293 224.82 231.167 158.859C285.69 101.657 354.714 71.7211 455.05 73.2807C585.915 75.3147 612.312 162.727 700.327 228.588C767.417 278.791 766.536 340.074 859.755 364.289C1043.31 411.971 835.912 1.89199 1023.65 41.313C1122.09 61.9822 1200.19 106.144 1197.61 176.09C1195.83 224.452 1104.28 235.662 1108.1 283.973C1114.44 364.084 1384.34 367.736 1384.34 367.736" stroke="white" stroke-opacity="0.19" stroke-width="9"/>
<path d="M53.8798 162.547C53.8798 162.547 194.085 -42.5989 284.068 15.6932C334.49 48.3573 221.255 77.0557 282.868 107.85C336.299 134.555 404.746 148.918 505.099 149.165C635.986 149.488 664.039 109.73 753.293 80.427C821.328 58.0908 821.61 30.0318 915.277 19.8406C1099.71 -0.226149 884.558 185.489 1073.03 169.244C1171.84 160.726 1250.77 141.26 1249.52 109.22C1248.66 87.0661 1157.33 81.0581 1162.07 58.9819C1169.93 22.3741 1439.87 23.2874 1439.87 23.2874" stroke="white" stroke-opacity="0.19" stroke-width="9"/>
</svg>
