<svg width="162" height="122" viewBox="0 0 162 122" fill="none" xmlns="http://www.w3.org/2000/svg">
<path opacity="0.3" d="M36.9665 35.7534C24.7992 43.7248 17.5919 58.3578 18.7358 73.6335C19.322 81.4432 21.9696 89.0265 29.1528 93.093C48.3657 104.007 132.085 103.918 143.496 84.863C155.251 65.2378 151.213 37.916 124.498 26.436C101.319 16.4678 68.383 15.1702 36.9665 35.7534Z" fill="#E6E6E6"/>
<path d="M49.4285 16.2333H18.772V44.8687H49.4285V16.2333Z" fill="#FFD200"/>
<path opacity="0.08" d="M46.4375 19.4429H21.7917V41.6511H46.4375V19.4429Z" fill="black"/>
<path opacity="0.57" d="M21.7917 41.6833L28.1826 28.74L34.1005 37.7826L39.9658 29.8395L46.4415 41.6833H21.7917Z" fill="white"/>
<path d="M66.0341 46.8575C66.0341 46.8575 59.4937 50.8513 52.2904 68.5201C48.0743 78.8885 36.2021 46.8575 36.2021 46.8575L30.3691 49.8246C30.3691 49.8246 38.4133 77.1786 49.6103 83.1571C60.8074 89.1356 70.8606 79.4342 71.4386 67.4367C72.0167 55.4393 66.0341 46.8575 66.0341 46.8575Z" fill="#ED1C24"/>
<path opacity="0.25" d="M66.0341 46.8575C66.0341 46.8575 59.4937 50.8513 52.2904 68.5201C48.0743 78.8885 36.2021 46.8575 36.2021 46.8575L30.3691 49.8246C30.3691 49.8246 38.4133 77.1786 49.6103 83.1571C60.8074 89.1356 70.8606 79.4342 71.4386 67.4367C72.0167 55.4393 66.0341 46.8575 66.0341 46.8575Z" fill="white"/>
<path d="M66.9842 83.8808C66.9842 83.8808 49.4124 47.0961 73.3225 44.21C97.2325 41.3238 109.553 41.6472 111.364 55.7789C113.175 69.9107 102.471 83.8808 102.471 83.8808H66.9842Z" fill="#ED1C24"/>
<path d="M58.2247 77.106L55.7185 66.208H73.0396L70.2262 77.9629L69.9796 80.2872L58.5926 79.6566L58.2247 77.106Z" fill="#FFD200"/>
<path d="M64.5306 72.8735C65.3611 72.8735 66.0343 72.2003 66.0343 71.3698C66.0343 70.5393 65.3611 69.8661 64.5306 69.8661C63.7001 69.8661 63.0269 70.5393 63.0269 71.3698C63.0269 72.2003 63.7001 72.8735 64.5306 72.8735Z" fill="white"/>
<path d="M82.9271 77.2352C83.7575 77.2352 84.4308 76.562 84.4308 75.7315C84.4308 74.901 83.7575 74.2278 82.9271 74.2278C82.0966 74.2278 81.4233 74.901 81.4233 75.7315C81.4233 76.562 82.0966 77.2352 82.9271 77.2352Z" fill="white"/>
<path d="M137.344 82.0253H30.7776V107.273H137.344V82.0253Z" fill="#C9C9C9"/>
<path d="M137.344 79.5393H30.7776V84.0949H137.344V79.5393Z" fill="#E6E6E6"/>
<path opacity="0.58" d="M126.692 75.4202C126.692 75.4202 122.885 74.3854 122.076 70.8565C122.076 70.8565 127.946 69.6721 128.111 75.7315L126.692 75.4202Z" fill="#ED1C24"/>
<path opacity="0.73" d="M127.158 75.0443C127.158 75.0443 124.51 70.8565 126.838 66.9597C126.838 66.9597 131.285 69.7893 129.32 75.0685L127.158 75.0443Z" fill="#ED1C24"/>
<path d="M127.837 75.0484C127.837 75.0484 129.239 70.6262 133.464 69.7935C133.464 69.7935 134.272 72.6635 130.727 75.0484H127.837Z" fill="#ED1C24"/>
<path d="M125.092 74.9474L125.86 80.2023L130.694 80.2226L131.41 74.9716L125.092 74.9474Z" fill="#24285B"/>
<path d="M81.0876 32.362C81.0876 32.362 80.9623 35.0258 81.4919 36.7721C81.5418 36.9416 81.6249 37.0994 81.7363 37.2365C81.8478 37.3736 81.9853 37.4871 82.141 37.5706C82.2967 37.6541 82.4674 37.7058 82.6433 37.7228C82.8191 37.7398 82.9966 37.7217 83.1654 37.6695C84.0425 37.3946 85.1461 36.7721 85.3846 35.3533L86.0839 32.9926C86.1747 32.5054 86.1123 32.002 85.9053 31.5518C85.6983 31.1015 85.3568 30.7265 84.9278 30.4783C83.3715 29.4596 81.0796 30.7329 81.0876 32.362Z" fill="#F4A28C"/>
<path d="M85.894 34.1971L86.8843 42.8799L82.0579 43.0821L83.2746 36.6831L85.894 34.1971Z" fill="#F4A28C"/>
<path d="M81.7506 32.4468C82.5756 32.4429 83.3974 32.3452 84.2002 32.1557C83.9802 32.5263 83.8726 32.9528 83.8905 33.3834C83.9085 33.814 84.0512 34.2301 84.3013 34.5811C84.5372 34.9269 84.8856 35.1803 85.2872 35.2982C85.6889 35.4161 86.119 35.3913 86.5043 35.2279L86.3184 31.804C86.3086 31.3135 86.1663 30.8347 85.9065 30.4184C85.6468 30.0021 85.2793 29.6638 84.843 29.4393C84.4651 29.2442 84.0749 29.0741 83.6747 28.93C82.6723 28.5743 81.2494 29.2898 80.3439 28.6632C80.2522 28.6003 80.1458 28.5623 80.0351 28.5529C79.9243 28.5434 79.813 28.5629 79.712 28.6093C79.611 28.6557 79.5237 28.7275 79.4588 28.8178C79.3938 28.908 79.3534 29.0135 79.3414 29.124C79.2323 30.171 79.4869 31.804 80.9179 32.3134C81.1856 32.4061 81.4674 32.4513 81.7506 32.4468Z" fill="#24285B"/>
<path d="M84.0103 34.5246C84.0103 34.5246 83.9901 33.4978 84.7622 33.5463C85.5342 33.5949 85.5706 35.0784 84.5358 35.2603L84.0103 34.5246Z" fill="#F4A28C"/>
<path opacity="0.08" d="M97.4185 53.8589C97.4185 53.8589 94.5889 59.7283 98.8898 65.917C103.191 72.1057 91.8078 74.2279 87.3613 74.2279C82.9148 74.2279 80.4409 76.0631 80.8451 79.5273H105.503L112.779 72.9182L113.721 65.0843L109.274 57.1857L97.4185 53.8589Z" fill="black"/>
<path d="M81.0957 34.0436L80.3964 35.1027C80.3503 35.1608 80.3211 35.2304 80.3119 35.304C80.3028 35.3776 80.3141 35.4523 80.3445 35.5199C80.375 35.5875 80.4235 35.6455 80.4847 35.6874C80.5459 35.7293 80.6174 35.7535 80.6915 35.7575L81.7182 35.9111L81.0957 34.0436Z" fill="#F4A28C"/>
<path opacity="0.31" d="M83.1572 37.6695L85.0853 36.376C85.0853 36.376 85.0166 37.9929 82.9268 39.0843L83.1572 37.6695Z" fill="#CE8172"/>
<path d="M142.692 18.4849H118.741V31.4565H142.692V18.4849Z" fill="#24285B"/>
<path d="M123.232 22.5312H124.134V26.6342H126.672V27.382H123.232V22.5312Z" fill="white"/>
<path d="M127.388 22.5312H128.289V27.382H127.388V22.5312Z" fill="white"/>
<path d="M134.001 22.5312L131.887 27.382H130.998L128.876 22.5312H129.854L131.471 26.2784L133.088 22.5312H134.001Z" fill="white"/>
<path d="M138.157 26.6422V27.382H134.519V22.5312H138.064V23.2993H135.416V24.5524H137.76V25.2962H135.416V26.6342L138.157 26.6422Z" fill="white"/>
<path opacity="0.08" d="M32.7056 41.166C32.7056 41.166 35.9758 39.5935 37.0874 44.8647L33.4493 44.7838L32.7056 41.166Z" fill="black"/>
<path d="M78.6301 43.5509C78.6301 43.5509 80.7604 41.8208 82.345 41.5823C83.6425 41.3843 84.5844 40.8992 86.5166 40.7173C87.9233 40.5879 89.0511 42.2736 90.6155 42.2251L82.9351 70.8363L78.6301 43.5509Z" fill="white"/>
<path opacity="0.25" d="M78.63 43.5551L73.0396 53.1757L78.63 57.8849L75.8368 61.8706L82.9269 70.8363L78.63 43.5551Z" fill="white"/>
<path opacity="0.25" d="M90.6152 42.2291L96.3996 51.8538L90.8092 56.563L93.6024 60.5487L82.9268 70.8363L90.6152 42.2291Z" fill="white"/>
<path d="M82.0579 45.3498L82.9269 48.0137L85.2796 45.3498L83.6707 42.7789L82.0579 45.3498Z" fill="#24285B"/>
<path d="M82.5995 47.0072L81.2009 59.8778L82.927 70.8364L85.9506 59.8656L84.0103 46.0209L82.5995 47.0072Z" fill="#24285B"/>
<path opacity="0.08" d="M73.0435 66.208C73.0435 66.208 69.6197 77.7689 58.4226 78.4723L58.5924 79.6566L70.0603 79.5394L70.226 77.9629L73.0435 66.208Z" fill="black"/>
<path d="M97.3174 53.022C96.8202 47.3143 103.534 43.9148 107.892 47.6337C112.488 51.5587 118.119 57.9374 120.197 66.79C123.936 82.7246 113.931 79.6121 90.6881 79.4989L90.0818 75.5738C90.0818 75.5738 109.735 75.8528 107.435 69.183C105.806 64.4576 97.9238 60.003 97.3174 53.022Z" fill="#ED1C24"/>
<path opacity="0.25" d="M97.3174 53.022C96.8202 47.3143 103.534 43.9148 107.892 47.6337C112.488 51.5587 118.119 57.9374 120.197 66.79C123.936 82.7246 113.931 79.6121 90.6881 79.4989L90.0818 75.5738C90.0818 75.5738 109.735 75.8528 107.435 69.183C105.806 64.4576 97.9238 60.003 97.3174 53.022Z" fill="white"/>
<path d="M90.3363 77.2312C90.3363 77.2312 84.4467 75.3879 84.0789 79.5272L90.7082 79.4868L90.3363 77.2312Z" fill="#F4A28C"/>
<path d="M35.4018 47.278C35.4018 47.278 33.4494 39.8806 31.4283 40.7214C29.4072 41.5622 32.1357 45.4023 32.1357 45.4023C32.1357 45.4023 28.0934 45.9319 31.1332 49.4446L35.4018 47.278Z" fill="#F4A28C"/>
<path opacity="0.08" d="M120.961 79.5272C120.961 79.5272 129.15 99.9367 93.3762 107.273H137.344V79.5272H120.961Z" fill="black"/>
<path d="M30.3048 21.4963H15.979V26.3188H30.3048V21.4963Z" fill="#24285B"/>
<path d="M34.4037 30.64C35.319 30.64 36.061 29.898 36.061 28.9826C36.061 28.0673 35.319 27.3253 34.4037 27.3253C33.4883 27.3253 32.7463 28.0673 32.7463 28.9826C32.7463 29.898 33.4883 30.64 34.4037 30.64Z" fill="white"/>
</svg>
