<svg width="162" height="122" viewBox="0 0 162 122" fill="none" xmlns="http://www.w3.org/2000/svg">
<path d="M68.4677 49.093C68.4677 49.093 60.1487 51.6032 57.7436 58.3094C55.3384 65.0155 57.5091 77.5101 67.1621 85.1015C76.815 92.6929 92.1797 86.678 92.1797 86.678C92.1797 86.678 102.734 72.4209 98.2916 62.1455C93.8492 51.87 86.5043 41.5016 68.4677 49.093Z" fill="#ED1C24"/>
<path d="M52.5493 77.7728C52.5493 77.7728 48.1513 95.1546 54.7564 95.1546C61.3615 95.1546 72.6394 94.904 72.6394 94.904L64.1506 79.7818L52.5493 77.7728Z" fill="#F4A28C"/>
<path d="M69.2482 49.1213C69.2482 49.1213 64.5551 54.1822 69.2482 57.2705C73.9412 60.3588 79.6206 55.8962 78.2624 52.7553C76.9042 49.6145 72.8135 47.464 72.8135 47.464L69.2482 49.1213Z" fill="#F4A28C"/>
<path opacity="0.09" d="M69.2482 49.1213C69.2482 49.1213 64.5551 54.1822 69.2482 57.2705C73.9412 60.3588 79.6206 55.8962 78.2624 52.7553C76.9042 49.6145 72.8135 47.464 72.8135 47.464L69.2482 49.1213Z" fill="black"/>
<path d="M57.2183 59.34C55.0516 63.8754 51.7006 71.871 51.8906 77.6596L64.1508 79.7858C64.1508 79.7858 70.9903 63.6652 64.3165 57.8444C63.785 57.3856 63.1548 57.0558 62.475 56.8806C61.7951 56.7054 61.084 56.6895 60.397 56.8343C59.71 56.979 59.0657 57.2805 58.5144 57.7151C57.963 58.1497 57.5194 58.7058 57.2183 59.34Z" fill="#ED1C24"/>
<path opacity="0.54" d="M57.2183 59.34C55.0516 63.8754 51.7006 71.871 51.8906 77.6596L64.1508 79.7858C64.1508 79.7858 70.9903 63.6652 64.3165 57.8444C63.785 57.3856 63.1548 57.0558 62.475 56.8806C61.7951 56.7054 61.084 56.6895 60.397 56.8343C59.71 56.979 59.0657 57.2805 58.5144 57.7151C57.963 58.1497 57.5194 58.7058 57.2183 59.34Z" fill="white"/>
<path d="M91.2464 50.4916C95.7454 53.6648 101.582 59.7888 103.64 70.8081L92.4348 74.9756C92.4348 74.9756 82.8708 65.254 83.5418 54.1984C83.5982 53.3302 83.8843 52.4926 84.371 51.7715C84.8576 51.0503 85.5273 50.4715 86.3112 50.0943C87.0952 49.7171 87.9654 49.5551 88.8326 49.625C89.6998 49.6948 90.5328 49.9939 91.2464 50.4916Z" fill="#ED1C24"/>
<path opacity="0.54" d="M91.2464 50.4916C95.7454 53.6648 101.582 59.7888 103.64 70.8081L92.4348 74.9756C92.4348 74.9756 82.8708 65.254 83.5418 54.1984C83.5982 53.3302 83.8843 52.4926 84.371 51.7715C84.8576 51.0503 85.5273 50.4715 86.3112 50.0943C87.0952 49.7171 87.9654 49.5551 88.8326 49.625C89.6998 49.6948 90.5328 49.9939 91.2464 50.4916Z" fill="white"/>
<path opacity="0.58" d="M37.7388 89.1156C37.7388 89.1156 32.7991 87.7695 31.7239 83.1653C31.7239 83.1653 39.3759 81.6212 39.5942 89.5198L37.7388 89.1156Z" fill="#ED1C24"/>
<path opacity="0.73" d="M38.3448 88.6263C38.3448 88.6263 34.8927 83.1692 37.9406 78.0719C37.9406 78.0719 43.7614 81.7665 41.1744 88.6384L38.3448 88.6263Z" fill="#ED1C24"/>
<path d="M39.2344 88.6305C39.2344 88.6305 41.0574 82.8703 46.5671 81.7587C46.5671 81.7587 47.6019 85.4978 42.9977 88.6305H39.2344Z" fill="#ED1C24"/>
<path d="M35.6489 88.5011L36.6514 95.3527L42.9573 95.377L43.8871 88.5334L35.6489 88.5011Z" fill="#24285B"/>
<path d="M65.6747 42.9487C65.6747 42.9487 66.7823 50.8514 70.9822 50.6048C75.1822 50.3582 72.5991 41.5946 72.5991 41.5946C72.5991 41.5946 72.0332 37.1481 69.5391 37.1481C67.0451 37.1481 63.8153 37.4876 65.6747 42.9487Z" fill="#F4A28C"/>
<path d="M65.2016 43.9552L66.0545 44.7637C66.0545 44.7637 70.3636 42.4757 70.3636 38.9832C70.3636 38.9832 71.172 42.0068 72.9587 43.1306C72.9587 43.1306 74.7454 37.0348 71.4146 36.3557C71.4146 36.3557 70.3514 34.6256 69.2762 34.5044C68.4031 34.4033 63.8353 35.8262 63.516 39.7593C63.4669 40.5401 63.5928 41.3219 63.8844 42.0478C64.176 42.7738 64.626 43.4254 65.2016 43.9552Z" fill="#24285B"/>
<path d="M66.0546 44.7636C66.0546 44.7636 63.8233 44.6262 64.1911 45.6731C64.5589 46.7201 64.5589 48.24 66.8145 47.0192L66.0546 44.7636Z" fill="#F4A28C"/>
<path opacity="0.09" d="M70.1618 52.8887C70.1618 52.8887 68.0881 54.6996 70.7721 56.0901C73.4562 57.4807 72.7165 70.7151 76.6051 74.1389C80.4938 77.5627 86.7876 75.7154 86.7876 75.7154L79.2488 61.4583L77.7572 54.3318L73.9292 53.588L70.1618 52.8887Z" fill="black"/>
<path d="M72.8093 42.9729C72.8093 42.9729 74.7617 41.8815 74.883 42.9729C75.0043 44.0643 75.6632 45.4467 73.1044 45.3255L72.8093 42.9729Z" fill="#F4A28C"/>
<path d="M75.6714 51.4658C75.6714 51.4658 70.857 49.4932 69.7454 51.4658C68.6338 53.4385 75.0488 54.922 75.0488 54.922L75.6714 51.4658Z" fill="#F4A28C"/>
<path d="M75.6714 51.4658C75.6714 51.4658 70.857 49.4932 69.7454 51.4658C68.6338 53.4385 75.0488 54.922 75.0488 54.922L75.6714 51.4658Z" fill="#F4A28C"/>
<path d="M103.078 71.0101C103.078 71.0101 108.268 84.7821 102.156 88.0159C96.0441 91.2498 78.6826 73.488 75.0486 54.9098L75.6711 51.4536C75.6711 51.4536 81.7911 58.1961 84.1033 62.2748C86.4154 66.3534 93.5743 71.8469 93.5743 71.8469L103.078 71.0101Z" fill="#F4A28C"/>
<path d="M66.3899 95.1585L62.0728 73.5566H96.428L93.6793 95.7083L66.3899 95.1585Z" fill="#FFD200"/>
<path d="M79.2447 86.5002C80.5485 86.5002 81.6054 85.4433 81.6054 84.1395C81.6054 82.8357 80.5485 81.7788 79.2447 81.7788C77.9409 81.7788 76.884 82.8357 76.884 84.1395C76.884 85.4433 77.9409 86.5002 79.2447 86.5002Z" fill="white"/>
<path d="M125.363 94.6654H29.8884V101.448H125.363V94.6654Z" fill="#E6E6E6"/>
<path d="M119.999 85.049H112.654V94.6978H119.999V85.049Z" fill="#C1C1C1"/>
<path d="M114.145 87.4702H111.566C110.83 87.4702 110.123 87.7628 109.603 88.2836C109.082 88.8044 108.789 89.5107 108.789 90.2473C108.789 90.6121 108.86 90.9734 109 91.3106C109.139 91.6478 109.344 91.9541 109.602 92.2121C109.859 92.4701 110.166 92.6746 110.503 92.814C110.84 92.9534 111.202 93.0248 111.566 93.0243H114.157" stroke="#C1C1C1" stroke-width="0.808454" stroke-miterlimit="10"/>
<path d="M116.991 92.4221C118.179 92.4221 119.142 91.4593 119.142 90.2716C119.142 89.0839 118.179 88.1211 116.991 88.1211C115.803 88.1211 114.841 89.0839 114.841 90.2716C114.841 91.4593 115.803 92.4221 116.991 92.4221Z" fill="#E6E6E6"/>
<path opacity="0.38" d="M113.511 85.0489C113.511 85.0489 111.615 79.8506 116.34 78.9855C121.066 78.1205 122.072 76.3944 119.17 72.813C116.268 69.2315 117.149 66.6404 120.023 66.1473C122.897 65.6541 127.113 70.8525 129.211 64.5303C131.309 58.2082 135.509 60.4638 137.114 64.5303C138.718 68.5969 141.56 75.016 132.914 75.5092C124.267 76.0023 128.467 82.1506 125.387 83.335C123.638 84.0169 121.846 84.5827 120.023 85.0287L113.511 85.0489Z" fill="#E6E6E6"/>
<path opacity="0.38" d="M113.463 24.1724C113.501 23.9372 113.521 23.6993 113.523 23.4609C113.523 22.2023 113.023 20.9953 112.133 20.1053C111.243 19.2153 110.036 18.7153 108.778 18.7153C108.035 18.715 107.304 18.8909 106.643 19.2287C106.643 19.0589 106.672 18.8891 106.672 18.7153C106.691 17.4802 106.227 16.2865 105.379 15.388C104.532 14.4896 103.367 13.9574 102.133 13.9047C100.899 13.852 99.6927 14.283 98.7715 15.106C97.8503 15.9289 97.2867 17.0789 97.2005 18.3111C96.3558 17.6355 95.3053 17.2692 94.2237 17.2733C93.142 17.2773 92.0943 17.6514 91.2547 18.3333C90.415 19.0152 89.834 19.9639 89.6082 21.0217C89.3824 22.0795 89.5253 23.1828 90.0133 24.1481H89.9204C89.4485 24.1477 88.9821 24.249 88.5529 24.4449C88.1237 24.6409 87.7417 24.927 87.4329 25.2838C87.1241 25.6405 86.8957 26.0596 86.7633 26.5125C86.631 26.9654 86.5977 27.4415 86.6657 27.9084C86.7337 28.3753 86.9015 28.8221 87.1577 29.2184C87.4138 29.6147 87.7522 29.9511 88.15 30.2049C88.5478 30.4587 88.9956 30.6239 89.4629 30.6892C89.9302 30.7545 90.4061 30.7184 90.8582 30.5834C90.992 31.7375 91.5453 32.8022 92.4128 33.5751C93.2803 34.3479 94.4015 34.7751 95.5634 34.7753C95.8713 35.7809 96.5045 36.6558 97.3637 37.2625C98.2228 37.8692 99.2591 38.1733 100.31 38.127C101.361 38.0808 102.366 37.6868 103.169 37.0069C103.971 36.3271 104.525 35.3999 104.743 34.371C105.438 34.9425 106.28 35.3049 107.173 35.416C108.065 35.527 108.971 35.3823 109.784 34.9985C110.597 34.6147 111.285 34.0077 111.767 33.2482C112.248 32.4888 112.504 31.6081 112.505 30.7087C112.505 30.7087 112.505 30.6845 112.505 30.6724C112.66 30.6947 112.817 30.7068 112.973 30.7087C113.799 30.7036 114.592 30.3882 115.195 29.8252C115.799 29.2622 116.168 28.4928 116.23 27.6698C116.292 26.8469 116.043 26.0307 115.531 25.3835C115.019 24.7363 114.282 24.3054 113.467 24.1764L113.463 24.1724Z" fill="#E6E6E6"/>
<path opacity="0.38" d="M94.7828 39.5612C94.8131 39.4865 94.8375 39.4094 94.8556 39.3308C94.9135 39.0648 94.9033 38.7885 94.8259 38.5275C94.7485 38.2664 94.6065 38.0292 94.413 37.8377C94.2195 37.6462 93.9808 37.5067 93.7189 37.432C93.4571 37.3574 93.1807 37.3501 92.9153 37.4108C92.9357 37.3568 92.9519 37.3014 92.9638 37.245C93.0123 36.8596 92.9204 36.4697 92.7049 36.1465C92.4895 35.8233 92.1649 35.5884 91.7905 35.4849C91.4161 35.3814 91.017 35.4161 90.6661 35.5826C90.3152 35.7492 90.036 36.0366 89.8796 36.3921C89.6898 36.1573 89.4381 35.9804 89.1529 35.8813C88.8678 35.7822 88.5606 35.7649 88.2661 35.8314C87.9716 35.8978 87.7017 36.0454 87.4867 36.2574C87.2718 36.4693 87.1205 36.7373 87.05 37.0308C86.9933 37.2686 86.9933 37.5165 87.05 37.7543H87.0176C86.87 37.7051 86.7137 37.6874 86.5589 37.7024C86.404 37.7173 86.254 37.7647 86.1185 37.8413C85.9831 37.9179 85.8653 38.022 85.7726 38.1471C85.68 38.2721 85.6147 38.4152 85.5808 38.567C85.547 38.7189 85.5454 38.8762 85.5762 39.0287C85.6069 39.1812 85.6694 39.3256 85.7595 39.4525C85.8496 39.5793 85.9653 39.6859 86.0992 39.7652C86.233 39.8445 86.3821 39.8948 86.5366 39.9129C86.6407 39.9403 86.7487 39.9499 86.8559 39.9412C86.8149 40.3284 86.915 40.7174 87.1378 41.0367C87.3606 41.356 87.6911 41.5842 88.0686 41.6794C88.1038 42.0266 88.2503 42.353 88.4863 42.61C88.7223 42.8671 89.0351 43.0408 89.3781 43.1054C89.721 43.17 90.0756 43.1219 90.3889 42.9683C90.7022 42.8148 90.9575 42.564 91.1165 42.2534C91.3046 42.4882 91.5545 42.6659 91.838 42.7665C92.1216 42.8671 92.4276 42.8865 92.7216 42.8227C93.0156 42.7588 93.286 42.6142 93.5023 42.4051C93.7186 42.196 93.8723 41.9307 93.9461 41.639C93.9945 41.6593 94.0445 41.6756 94.0957 41.6875C94.37 41.7572 94.6607 41.7192 94.908 41.5813C95.1552 41.4435 95.3403 41.2161 95.4252 40.946C95.51 40.6759 95.4882 40.3836 95.3643 40.129C95.2403 39.8745 95.0236 39.6771 94.7586 39.5774L94.7828 39.5612Z" fill="#E6E6E6"/>
<path opacity="0.38" d="M84.2529 41.1823C84.2529 41.1338 84.2853 41.0853 84.2974 41.0328C84.3285 40.9008 84.3332 40.764 84.3112 40.6303C84.2891 40.4965 84.2408 40.3684 84.1691 40.2534C84.0973 40.1384 84.0035 40.0388 83.893 39.9603C83.7825 39.8817 83.6575 39.8258 83.5253 39.7958C83.3687 39.7574 83.205 39.7574 83.0483 39.7958C83.0615 39.7616 83.0723 39.7264 83.0807 39.6907C83.1536 39.427 83.1187 39.1451 82.9838 38.9071C82.8489 38.669 82.6249 38.4944 82.3612 38.4214C82.0974 38.3485 81.8155 38.3834 81.5775 38.5183C81.3395 38.6533 81.1648 38.8772 81.0919 39.141C80.9713 38.9904 80.8109 38.8767 80.6289 38.8128C80.4469 38.7489 80.2506 38.7374 80.0623 38.7795C79.8741 38.8216 79.7015 38.9157 79.564 39.0511C79.4266 39.1864 79.3299 39.3576 79.285 39.5452C79.2486 39.698 79.2486 39.8572 79.285 40.0101C79.1849 39.9867 79.0809 39.9851 78.9802 40.0055C78.8794 40.0259 78.7843 40.0678 78.7012 40.1283C78.6181 40.1888 78.549 40.2665 78.4986 40.3561C78.4482 40.4457 78.4177 40.5451 78.4092 40.6475C78.4007 40.75 78.4143 40.853 78.4492 40.9497C78.4841 41.0464 78.5395 41.1344 78.6115 41.2078C78.6834 41.2812 78.7704 41.3382 78.8664 41.375C78.9624 41.4117 79.0652 41.4274 79.1678 41.4208C79.1401 41.6744 79.2074 41.9293 79.3567 42.1361C79.5061 42.3429 79.7268 42.487 79.9762 42.5405C79.9921 42.768 80.083 42.9838 80.2347 43.1541C80.3864 43.3244 80.5903 43.4396 80.8144 43.4817C81.0385 43.5237 81.2703 43.4902 81.4734 43.3865C81.6765 43.2828 81.8394 43.1146 81.9367 42.9084C82.0568 43.0634 82.2185 43.1811 82.4029 43.2478C82.5873 43.3145 82.7868 43.3274 82.9783 43.285C83.1698 43.2427 83.3453 43.1468 83.4843 43.0085C83.6234 42.8703 83.7203 42.6954 83.7638 42.5041L83.8608 42.5365C84.0347 42.5732 84.216 42.5439 84.3695 42.4543C84.523 42.3647 84.6376 42.2212 84.6911 42.0517C84.7446 41.8822 84.733 41.6989 84.6588 41.5375C84.5845 41.376 84.4528 41.248 84.2893 41.1783L84.2529 41.1823Z" fill="#E6E6E6"/>
</svg>
