<svg width="162" height="122" viewBox="0 0 162 122" fill="none" xmlns="http://www.w3.org/2000/svg">
<path opacity="0.45" d="M81.2498 112.524C104.427 112.524 123.217 110.521 123.217 108.049C123.217 105.578 104.427 103.575 81.2498 103.575C58.0722 103.575 39.283 105.578 39.283 108.049C39.283 110.521 58.0722 112.524 81.2498 112.524Z" fill="#E6E6E6"/>
<path d="M134.26 44.4363C138.069 44.4363 141.156 41.3488 141.156 37.5402C141.156 33.7315 138.069 30.644 134.26 30.644C130.451 30.644 127.364 33.7315 127.364 37.5402C127.364 41.3488 130.451 44.4363 134.26 44.4363Z" fill="#FFD200"/>
<path opacity="0.15" d="M134.26 50.6857C141.52 50.6857 147.406 44.8003 147.406 37.5402C147.406 30.2802 141.52 24.3948 134.26 24.3948C127 24.3948 121.115 30.2802 121.115 37.5402C121.115 44.8003 127 50.6857 134.26 50.6857Z" fill="#FFD200"/>
<path opacity="0.37" d="M58.2088 53.3414C58.2088 52.2554 57.7774 51.2138 57.0095 50.4459C56.2416 49.678 55.2 49.2465 54.114 49.2465C53.8932 49.2468 53.6728 49.2657 53.4551 49.3031C52.9843 48.4259 52.2848 47.6925 51.4307 47.1807C50.5767 46.669 49.6 46.3981 48.6044 46.3967H48.4023C48.5353 45.879 48.6032 45.3467 48.6044 44.8122C48.6261 43.9383 48.4727 43.0688 48.1533 42.2551C47.8339 41.4414 47.3548 40.6998 46.7444 40.074C46.134 39.4482 45.4045 38.9509 44.599 38.6114C43.7934 38.2718 42.9281 38.0969 42.0539 38.0969C41.1797 38.0969 40.3144 38.2718 39.5088 38.6114C38.7033 38.9509 37.9738 39.4482 37.3634 40.074C36.753 40.6998 36.2739 41.4414 35.9545 42.2551C35.6351 43.0688 35.4817 43.9383 35.5034 44.8122C35.5046 45.3467 35.5725 45.879 35.7055 46.3967H35.5034C34.766 46.3768 34.032 46.5048 33.3449 46.7732C32.6578 47.0416 32.0314 47.445 31.5027 47.9595C30.9741 48.4741 30.5539 49.0893 30.267 49.7689C29.9801 50.4485 29.8323 51.1788 29.8323 51.9165C29.8323 52.6542 29.9801 53.3844 30.267 54.064C30.5539 54.7436 30.9741 55.3589 31.5027 55.8734C32.0314 56.3879 32.6578 56.7913 33.3449 57.0597C34.032 57.3281 34.766 57.4562 35.5034 57.4362H54.6597V57.3958C55.6421 57.2645 56.5433 56.7812 57.1961 56.0355C57.8489 55.2897 58.2087 54.3324 58.2088 53.3414Z" fill="#E6E6E6"/>
<path d="M79.7541 97.677C99.5406 97.677 115.581 81.6368 115.581 61.8503C115.581 42.0638 99.5406 26.0237 79.7541 26.0237C59.9676 26.0237 43.9275 42.0638 43.9275 61.8503C43.9275 81.6368 59.9676 97.677 79.7541 97.677Z" fill="#EFEFEF"/>
<path d="M53.2771 38.397C53.2771 38.397 53.5924 43.5671 57.1375 42.0351C60.6825 40.5031 65.4645 38.8013 64.9471 44.4887C64.4297 50.1762 67.2714 50.9564 71.2773 49.5294C75.2832 48.1025 73.3429 47.7185 73.6016 42.5525C73.8603 37.3865 67.134 37.1278 68.1769 33.5099C69.2198 29.8921 77.2841 34.2052 74.4748 26.4279C74.4748 26.4077 60.3389 27.5759 53.2771 38.397Z" fill="#CECECE"/>
<path d="M83.1009 51.8617C82.3489 51.863 81.6059 52.0257 80.9221 52.3387C79.5073 53.0138 77.8015 54.6428 78.7716 58.5315C80.3198 64.7526 82.9028 60.1282 86.262 60.8881C89.6211 61.6481 97.2448 62.4282 93.4976 69.2718C89.7505 76.1154 94.015 77.5423 97.6329 75.8607C101.251 74.1791 98.793 67.4649 102.54 70.436C106.287 73.4071 101.982 82.773 111.11 79.1875C111.11 79.1875 121.62 63.2812 111.11 44.5089C111.11 44.5089 106.348 35.3976 102.601 38.6274C98.8536 41.8571 104.012 42.039 104.529 45.7458C105.046 49.4526 102.86 53.9799 99.8723 49.8164C96.8851 45.6528 97.8916 46.0207 93.1096 45.5033C89.2937 45.099 86.6419 45.5477 86.5651 48.7896C86.5485 49.6009 86.2177 50.3741 85.6424 50.9463C85.0671 51.5186 84.2922 51.8453 83.4809 51.8577L83.1009 51.8617Z" fill="#CECECE"/>
<path d="M82.1552 31.6789C82.1552 31.6789 78.4363 30.6481 78.4848 35.1674C78.5334 39.6866 80.9911 39.4279 83.7034 38.2678C86.4158 37.1077 84.1076 40.8508 89.2615 39.82C94.4154 38.7893 94.8156 37.5725 93.6514 35.7778C92.4873 33.983 90.547 27.1596 82.1552 31.6789Z" fill="#CECECE"/>
<path d="M43.9275 61.8504C43.9275 61.8504 48.2972 54.7036 53.0712 59.5341C57.8451 64.3647 48.4508 63.5764 53.2773 68.2412C58.1038 72.906 61.4427 62.0848 64.1712 66.1877C66.8998 70.2906 72.2073 73.0919 65.97 76.6976C59.7328 80.3033 63.4638 85.336 66.3379 84.2728C69.2119 83.2097 74.3133 90.4818 66.3379 94.9808C66.3379 95.001 42.9291 86.4597 43.9275 61.8504Z" fill="#CECECE"/>
<path d="M81.3832 70.0481C81.3832 70.0481 76.4759 70.0481 76.4597 74.7007C76.4436 79.3534 85.6276 74.9513 83.4933 79.9921C81.359 85.0328 86.3754 86.391 89.1525 84.293C91.9295 82.1951 87.1313 75.873 87.6002 71.4103C88.0691 66.9476 81.9289 67.9825 81.3832 70.0481Z" fill="#CECECE"/>
<path d="M79.7539 97.6771C79.7539 97.6771 76.5848 94.3341 83.493 93.5621C90.4012 92.79 90.5508 89.1681 92.7902 87.6159C95.0296 86.0637 99.8035 91.5409 99.8035 91.5409C99.8035 91.5409 90.951 99.4678 79.7539 97.6771Z" fill="#CECECE"/>
<path opacity="0.08" d="M57.1337 79.123H62.3886V93.1659C62.3886 93.1659 58.3464 90.7648 57.1337 89.6168C55.921 88.4688 57.1337 79.123 57.1337 79.123Z" fill="black"/>
<path opacity="0.08" d="M92.1519 51.1666C94.5563 51.1666 96.5054 50.564 96.5054 49.8206C96.5054 49.0771 94.5563 48.4745 92.1519 48.4745C89.7475 48.4745 87.7983 49.0771 87.7983 49.8206C87.7983 50.564 89.7475 51.1666 92.1519 51.1666Z" fill="black"/>
<path d="M101.057 32.5763C101.051 31.2068 100.728 29.8572 100.115 28.6328C99.5012 27.4085 98.6132 26.3423 97.5199 25.5175C96.4267 24.6927 95.1577 24.1315 93.8119 23.8778C92.4661 23.624 91.0799 23.6845 89.7614 24.0545C88.4428 24.4245 87.2275 25.094 86.2102 26.0109C85.1929 26.9277 84.4011 28.0672 83.8966 29.3403C83.392 30.6135 83.1883 31.986 83.3013 33.3508C83.4144 34.7156 83.8411 36.0359 84.5483 37.2087L92.1639 49.671L99.731 37.2693C100.604 35.8601 101.063 34.234 101.057 32.5763ZM92.1639 37.3017C91.3029 37.3017 90.4611 37.0463 89.7452 36.568C89.0293 36.0896 88.4713 35.4097 88.1418 34.6142C87.8123 33.8187 87.726 32.9433 87.894 32.0988C88.062 31.2543 88.4766 30.4786 89.0855 29.8697C89.6943 29.2609 90.4701 28.8463 91.3146 28.6783C92.1591 28.5103 93.0344 28.5965 93.8299 28.926C94.6254 29.2555 95.3054 29.8135 95.7837 30.5295C96.2621 31.2454 96.5174 32.0871 96.5174 32.9481C96.5174 34.1028 96.0588 35.2101 95.2423 36.0266C94.4259 36.843 93.3185 37.3017 92.1639 37.3017Z" fill="#ED1C24"/>
<path opacity="0.08" d="M62.3725 37.7827C64.4464 37.7827 66.1277 37.2868 66.1277 36.6751C66.1277 36.0634 64.4464 35.5675 62.3725 35.5675C60.2985 35.5675 58.6172 36.0634 58.6172 36.6751C58.6172 37.2868 60.2985 37.7827 62.3725 37.7827Z" fill="black"/>
<path d="M69.0016 23.9016C69.0013 22.8783 68.7641 21.8691 68.3087 20.9528C67.8532 20.0365 67.1919 19.2381 66.3764 18.6201C65.5609 18.002 64.6134 17.5811 63.6081 17.3904C62.6028 17.1996 61.567 17.2442 60.5818 17.5205C59.5966 17.7969 58.6888 18.2975 57.9293 18.9833C57.1699 19.669 56.5795 20.5213 56.2044 21.4733C55.8293 22.4253 55.6797 23.4512 55.7672 24.4707C55.8548 25.4901 56.1771 26.4755 56.709 27.3496L62.3682 36.6469L68.0072 27.382C68.6567 26.3372 69.0011 25.1317 69.0016 23.9016ZM62.3722 27.4183C61.7327 27.4183 61.1074 27.2287 60.5756 26.8734C60.0438 26.518 59.6293 26.013 59.3846 25.4221C59.1398 24.8312 59.0758 24.1809 59.2006 23.5536C59.3253 22.9263 59.6333 22.3501 60.0856 21.8979C60.5378 21.4456 61.1141 21.1376 61.7414 21.0129C62.3687 20.8881 63.0189 20.9521 63.6098 21.1969C64.2007 21.4416 64.7057 21.8561 65.0611 22.3879C65.4164 22.9197 65.6061 23.5449 65.6061 24.1845C65.6061 25.0422 65.2654 25.8647 64.6589 26.4712C64.0524 27.0776 63.2299 27.4183 62.3722 27.4183Z" fill="#ED1C24"/>
<path opacity="0.08" d="M82.3654 74.8018C83.8745 74.8018 85.098 74.467 85.098 74.054C85.098 73.641 83.8745 73.3062 82.3654 73.3062C80.8562 73.3062 79.6328 73.641 79.6328 74.054C79.6328 74.467 80.8562 74.8018 82.3654 74.8018Z" fill="black"/>
<path opacity="0.08" d="M106.405 70.8688C106.405 70.8688 99.9371 72.2189 101.764 78.5491C101.764 78.5491 95.6442 82.1629 97.7219 86.8519C97.7219 86.8519 98.591 89.6492 102.9 89.1843C102.9 89.1843 104.723 87.5674 105.034 87.2278C105.346 86.8883 106.405 70.8688 106.405 70.8688Z" fill="black"/>
<path d="M87.1637 64.8457C87.1642 64.1046 86.9929 63.3735 86.6635 62.7096C86.334 62.0458 85.8552 61.4673 85.2646 61.0195C84.6741 60.5718 83.9879 60.2669 83.2598 60.1287C82.5316 59.9906 81.7814 60.023 81.0679 60.2235C80.3544 60.4239 79.6971 60.7869 79.1474 61.2839C78.5977 61.781 78.1706 62.3986 77.8996 63.0884C77.6286 63.7782 77.5211 64.5214 77.5855 65.2597C77.6499 65.998 77.8844 66.7114 78.2707 67.3438L82.3696 74.054L86.4442 67.3762C86.9161 66.6166 87.1654 65.7399 87.1637 64.8457ZM82.3656 67.4004C81.9019 67.4004 81.4486 67.2629 81.063 67.0053C80.6775 66.7477 80.377 66.3815 80.1995 65.9531C80.0221 65.5247 79.9756 65.0533 80.0661 64.5985C80.1565 64.1437 80.3798 63.726 80.7077 63.3981C81.0356 63.0702 81.4534 62.8469 81.9082 62.7564C82.363 62.666 82.8344 62.7124 83.2628 62.8899C83.6912 63.0673 84.0573 63.3678 84.3149 63.7534C84.5726 64.1389 84.7101 64.5922 84.7101 65.0559C84.7101 65.6777 84.4631 66.2741 84.0234 66.7137C83.5837 67.1534 82.9874 67.4004 82.3656 67.4004Z" fill="#ED1C24"/>
<path d="M124.328 83.5209C124.329 83.034 124.233 82.5518 124.047 82.1018C123.861 81.6518 123.588 81.243 123.244 80.8987C122.899 80.5544 122.491 80.2813 122.041 80.0953C121.591 79.9092 121.108 79.8136 120.622 79.8142C120.422 79.8153 120.224 79.8328 120.027 79.8667C119.599 79.0685 118.961 78.4019 118.183 77.9383C117.405 77.4747 116.515 77.2317 115.609 77.2352H115.427C115.546 76.7646 115.607 76.2814 115.609 75.7962C115.569 74.2497 114.926 72.7801 113.818 71.7006C112.71 70.6211 111.224 70.017 109.677 70.017C108.13 70.017 106.644 70.6211 105.536 71.7006C104.428 72.7801 103.785 74.2497 103.745 75.7962C103.747 76.2814 103.809 76.7646 103.927 77.2352H103.745C102.42 77.2352 101.149 77.7616 100.212 78.6986C99.2752 79.6356 98.7488 80.9064 98.7488 82.2315C98.7488 83.5565 99.2752 84.8274 100.212 85.7643C101.149 86.7013 102.42 87.2277 103.745 87.2277H121.107V87.2075C122 87.0887 122.819 86.6492 123.412 85.9709C124.004 85.2926 124.33 84.4218 124.328 83.5209Z" fill="#F7F7F7"/>
<path d="M57.1338 75.493H24.5571V94.14H57.1338V75.493Z" fill="#24285B"/>
<path d="M37.464 82.3892C37.463 81.7859 37.3227 81.191 37.054 80.6509C36.7852 80.1108 36.3954 79.64 35.9148 79.2754C35.4342 78.9107 34.8758 78.662 34.2833 78.5486C33.6907 78.4352 33.08 78.4602 32.4987 78.6217C31.9175 78.7831 31.3813 79.0767 30.9322 79.4794C30.483 79.8822 30.1329 80.3832 29.9093 80.9435C29.6856 81.5038 29.5944 82.1082 29.6427 82.7096C29.6911 83.3109 29.8777 83.893 30.188 84.4104L33.5511 89.9038L36.8779 84.4508C37.2621 83.8319 37.4652 83.1177 37.464 82.3892ZM33.5511 84.467C33.1722 84.467 32.8017 84.3546 32.4866 84.1441C32.1715 83.9335 31.926 83.6343 31.7809 83.2842C31.6359 82.934 31.598 82.5488 31.6719 82.1771C31.7458 81.8054 31.9283 81.464 32.1963 81.1961C32.4642 80.9281 32.8057 80.7456 33.1773 80.6717C33.549 80.5978 33.9343 80.6357 34.2844 80.7807C34.6345 80.9258 34.9337 81.1713 35.1443 81.4864C35.3548 81.8015 35.4672 82.172 35.4672 82.5509C35.4672 83.0591 35.2653 83.5464 34.906 83.9058C34.5466 84.2651 34.0593 84.467 33.5511 84.467Z" fill="#FFD200"/>
<path d="M52.8003 80.6388H40.9604V83.3229H52.8003V80.6388Z" fill="white"/>
<path opacity="0.19" d="M52.8003 85.5098H40.9604V88.1938H52.8003V85.5098Z" fill="white"/>
</svg>
