<svg xmlns="http://www.w3.org/2000/svg" xmlns:xlink="http://www.w3.org/1999/xlink" version="1.1" x="0px" y="0px" viewBox="0 0 100 125" enable-background="new 0 0 100 100" xml:space="preserve"><g><path stroke="#000000" stroke-width="0.5" stroke-miterlimit="10" d="M55.8,47.3V29.1h16.8v14.3c0,7.8-0.9,13.4-2.8,16.9   c-2.4,4.6-6.3,8.1-11.5,10.5l-3.8-6.1c3.2-1.3,5.5-3.3,7-6c1.5-2.6,2.3-6.5,2.5-11.5H55.8z M28.9,47.3V29.1h16.8v14.3   c0,7.8-0.9,13.4-2.8,16.9c-2.4,4.6-6.3,8.1-11.5,10.5l-3.8-6.1c3.2-1.3,5.5-3.3,7-6c1.5-2.6,2.3-6.5,2.5-11.5H28.9z"/></g><text x="0" y="115" fill="#000000" font-size="5px" font-weight="bold" font-family="'Helvetica Neue', Helvetica, Arial-Unicode, Arial, Sans-serif">Created by Curve</text><text x="0" y="120" fill="#000000" font-size="5px" font-weight="bold" font-family="'Helvetica Neue', Helvetica, Arial-Unicode, Arial, Sans-serif">from the Noun Project</text></svg>